# Blender v2.75 (sub 0) OBJ File: ''
# www.blender.org
mtllib building.mtl
o Cube
v 1.000000 0.000000 -1.000000
v 1.000000 0.000000 1.000000
v -1.000000 0.000000 1.000000
v -1.000000 0.000000 -1.000000
v 1.000000 8.000000 -0.999999
v 0.999999 8.000000 1.000001
v -1.000000 8.000000 1.000000
v -1.000000 8.000000 -1.000000
vt 0.014971 0.912188
vt 0.053088 0.912188
vt 0.053088 0.950304
vt 0.000000 0.937500
vt 0.187500 0.875000
vt 0.125000 0.875000
vt 0.125000 0.812500
vt 0.187500 0.812500
vt 0.062500 0.625000
vt 0.062500 0.875000
vt 0.000000 0.875000
vt 0.000000 0.625000
vn 0.000000 -1.000000 0.000000
vn 0.000000 1.000000 0.000000
vn 1.000000 0.000000 0.000000
vn -0.000000 -0.000000 1.000000
vn -1.000000 -0.000000 -0.000000
vn 0.000000 0.000000 -1.000000
usemtl Material
s off
f 1/1/1 2/2/1 3/3/1 4/4/1
f 5/5/2 8/6/2 7/7/2 6/8/2
f 1/9/3 5/10/3 6/11/3 2/12/3
f 2/9/4 6/10/4 7/11/4 3/12/4
f 3/9/5 7/10/5 8/11/5 4/12/5
f 5/11/6 1/12/6 4/9/6 8/10/6
