# Blender v2.75 (sub 0) OBJ File: 'stuff.blend'
# www.blender.org
o house2_Cube.021
v -0.179542 0.000000 0.159822
v -0.179542 0.549966 0.159822
v -0.179542 0.000000 -0.708953
v -0.179542 0.549966 -0.708953
v 0.370423 0.000000 0.159822
v 0.370423 0.549966 0.159822
v 0.370423 0.000000 -0.708953
v 0.370423 0.549966 -0.708953
v 0.095440 0.824948 -0.708953
v 0.095440 0.824948 0.159822
v -0.575006 0.000000 -0.237064
v -0.575006 0.678925 -0.237064
v 0.497483 0.000000 -0.237064
v 0.497483 0.678925 -0.237064
v -0.575006 0.000000 0.441860
v -0.575006 0.678925 0.441860
v 0.497483 0.000000 0.441860
v 0.497483 0.678925 0.441860
v 0.497483 1.018387 0.102398
v -0.575006 1.018387 0.102398
vt 0.750000 0.906250
vt 0.687500 0.906250
vt 0.687500 0.875000
vt 0.750000 0.875000
vt 0.712891 0.901367
vt 0.750000 0.937500
vt 0.687500 0.937500
vt 0.716797 0.875000
vt 0.716797 0.906250
vn -1.000000 0.000000 0.000000
vn 0.000000 0.000000 -1.000000
vn 1.000000 0.000000 0.000000
vn 0.000000 0.000000 1.000000
vn -0.707100 0.707100 0.000000
vn 0.707100 0.707100 0.000000
vn -0.000000 0.707100 -0.707100
vn 0.000000 0.707100 0.707100
s off
f 2/1/1 4/2/1 3/3/1 1/4/1
f 4/5/2 9/5/2 8/5/2
f 8/1/3 6/2/3 5/3/3 7/4/3
f 6/5/4 10/5/4 2/5/4
f 10/2/5 9/1/5 4/6/5 2/7/5
f 6/2/6 8/1/6 9/6/6 10/7/6
f 1/3/4 5/8/4 6/9/4
f 6/9/4 2/2/4 1/3/4
f 7/8/2 3/3/2 4/2/2
f 4/2/2 8/9/2 7/8/2
f 12/1/2 14/2/2 13/3/2 11/4/2
f 14/5/3 19/5/3 18/5/3
f 18/1/4 16/2/4 15/3/4 17/4/4
f 16/5/1 20/5/1 12/5/1
f 20/2/7 19/1/7 14/6/7 12/7/7
f 16/2/8 18/1/8 19/6/8 20/7/8
f 11/3/1 15/8/1 16/9/1
f 16/9/1 12/2/1 11/3/1
f 17/8/3 13/3/3 14/2/3
f 14/2/3 18/9/3 17/8/3
