# Blender v2.75 (sub 0) OBJ File: 'stuff.blend'
# www.blender.org
o Cube_Cube.020
v -0.250000 0.000000 0.394922
v -0.250000 0.500000 0.394922
v -0.250000 0.000000 -0.394922
v -0.250000 0.500000 -0.394922
v 0.250000 0.000000 0.394922
v 0.250000 0.500000 0.394922
v 0.250000 0.000000 -0.394922
v 0.250000 0.500000 -0.394922
v 0.000000 0.750000 -0.394922
v 0.000000 0.750000 0.394922
vt 0.750000 0.906250
vt 0.687500 0.906250
vt 0.687500 0.875000
vt 0.750000 0.875000
vt 0.712891 0.901367
vt 0.750000 0.937500
vt 0.687500 0.937500
vt 0.716797 0.875000
vt 0.716797 0.906250
vn -1.000000 0.000000 0.000000
vn 0.000000 0.000000 -1.000000
vn 1.000000 0.000000 0.000000
vn 0.000000 0.000000 1.000000
vn -0.707100 0.707100 0.000000
vn 0.707100 0.707100 0.000000
s off
f 2/1/1 4/2/1 3/3/1 1/4/1
f 4/5/2 9/5/2 8/5/2
f 8/1/3 6/2/3 5/3/3 7/4/3
f 6/5/4 10/5/4 2/5/4
f 10/2/5 9/1/5 4/6/5 2/7/5
f 6/2/6 8/1/6 9/6/6 10/7/6
f 1/3/4 5/8/4 6/9/4
f 6/9/4 2/2/4 1/3/4
f 7/8/2 3/3/2 4/2/2
f 4/2/2 8/9/2 7/8/2
