# Blender v2.75 (sub 0) OBJ File: 'stuff.blend'
# www.blender.org
o Circle_Circle.005
v -3.000000 2.000000 -3.000000
v 3.000000 2.000000 -3.000006
v 2.884713 2.000000 -1.829463
v 2.543279 2.000000 -0.703904
v -2.999998 0.000000 3.000000
v -1.829456 0.000000 2.884711
v -0.703897 0.000000 2.543276
v 0.333424 0.000000 1.988816
v 1.242643 0.000000 1.242638
v 1.988820 0.000000 0.333418
v 2.543279 0.000000 -0.703904
v 2.884713 0.000000 -1.829463
v 3.000000 0.000000 -3.000006
v 1.988820 2.000000 0.333418
v 1.242643 2.000000 1.242638
v 0.333424 2.000000 1.988816
v -0.703897 2.000000 2.543276
v -1.829456 2.000000 2.884711
v -2.999998 2.000000 3.000000
v -3.000000 0.000000 -3.000000
vt 0.554688 0.937500
vt 0.554688 0.875000
vt 0.562500 0.875000
vt 0.562500 0.937500
vt 0.500000 0.937500
vt 0.500000 0.875000
vt 0.507812 0.875000
vt 0.507812 0.937500
vt 0.523438 0.937500
vt 0.523438 0.875000
vt 0.531250 0.875000
vt 0.531250 0.937500
vt 0.546875 0.937500
vt 0.546875 0.875000
vt 0.515625 0.937500
vt 0.515625 0.875000
vt 0.539062 0.937500
vt 0.539062 0.875000
vt 0.750000 0.437500
vt 0.677734 0.610352
vt 0.645508 0.592773
vt 0.712891 0.620117
vt 0.750000 0.625000
vt 0.565430 0.473633
vt 0.562500 0.437500
vt 0.592773 0.541016
vt 0.577148 0.508789
vt 0.616211 0.569336
vt 0.000000 0.000000
vn 0.098000 0.000000 0.995200
vn 0.995200 0.000000 0.098000
vn 0.773000 0.000000 0.634400
vn 0.290300 0.000000 0.956900
vn 0.881900 0.000000 0.471400
vn 0.471400 0.000000 0.881900
vn 0.956900 0.000000 0.290300
vn 0.634400 0.000000 0.773000
vn 0.000000 1.000000 0.000000
vn -1.000000 0.000000 0.000000
vn -0.000000 0.000000 -1.000000
s off
f 6/1/1 18/2/1 19/3/1 5/4/1
f 13/5/2 2/6/2 3/7/2 12/8/2
f 10/9/3 14/10/3 15/11/3 9/12/3
f 7/13/4 17/14/4 18/2/4 6/1/4
f 11/15/5 4/16/5 14/10/5 10/9/5
f 8/17/6 16/18/6 17/14/6 7/13/6
f 12/8/7 3/7/7 4/16/7 11/15/7
f 9/12/8 15/11/8 16/18/8 8/17/8
f 1/19/9 17/20/9 16/21/9
f 18/22/9 1/19/9 19/23/9
f 1/19/9 3/24/9 2/25/9
f 1/19/9 14/26/9 4/27/9
f 1/19/9 16/21/9 15/28/9
f 1/19/9 18/22/9 17/20/9
f 4/27/9 3/24/9 1/19/9
f 1/19/9 15/28/9 14/26/9
f 5/29/10 19/29/10 1/29/10 20/29/10
f 13/29/11 20/29/11 1/29/11 2/29/11
