# Blender v2.75 (sub 0) OBJ File: 'stuff.blend'
# www.blender.org
o 3232_intersection_Cube.015
v 5.406615 2.000000 2.095216
v 2.498951 2.000000 2.095216
v 2.380776 0.229692 3.000293
v 7.000000 2.000000 2.837199
v 3.147552 0.789255 2.837199
v 3.909299 1.410925 2.497781
v 4.685616 1.862923 2.224036
v 1.998878 0.100000 5.000000
v 1.998878 0.100000 3.000293
v 3.909299 1.410925 3.775450
v 4.685616 1.862923 3.413542
v 5.406615 2.000000 3.189525
v 1.998878 0.100000 4.200078
v 2.380776 0.229692 4.201048
v 3.147552 0.789255 4.049025
v 5.700327 2.000000 3.123827
v 6.616085 2.000000 3.123827
v 5.406615 0.000000 2.095216
v 7.000000 0.000000 3.000000
v 1.998878 0.000000 5.000000
v 3.909299 0.000000 3.775450
v 4.685616 0.000000 3.413542
v 5.406615 0.000000 3.189525
v 1.998878 0.000000 4.200078
v 2.380776 0.000000 4.201048
v 3.147552 0.000000 4.049025
v 5.700327 0.000000 3.123827
v 6.616085 0.000000 3.123827
v 2.498951 0.000000 2.095216
v 2.380776 0.000000 3.000293
v 3.147552 0.000000 2.837199
v 3.909299 0.000000 2.497781
v 4.685616 0.000000 2.224036
v 1.998878 0.000000 3.000293
v 2.498951 1.500000 2.095216
v -1.998878 0.100000 -7.000000
v -5.406615 2.000000 2.095216
v -2.498951 2.000000 2.095216
v -2.380776 0.229692 3.000293
v -7.000000 2.000000 2.837199
v -3.147552 0.789255 2.837199
v -3.909299 1.410925 2.497781
v -4.685616 1.862923 2.224036
v -1.998878 0.100000 5.000000
v -1.998878 0.100000 3.000293
v -3.909299 1.410925 3.775450
v -4.685616 1.862923 3.413542
v -5.406615 2.000000 3.189525
v -1.998878 0.100000 4.200078
v -2.380776 0.229692 4.201048
v -3.147552 0.789255 4.049025
v -5.700327 2.000000 3.123827
v -6.616085 2.000000 3.123827
v -5.406615 0.000000 2.095216
v -1.998878 0.000000 5.000000
v -3.909299 0.000000 3.775450
v -4.685616 0.000000 3.413542
v -5.406615 0.000000 3.189525
v -1.998878 0.000000 4.200078
v -2.380776 0.000000 4.201048
v -3.147552 0.000000 4.049025
v -5.700327 0.000000 3.123827
v -6.616085 0.000000 3.123827
v -2.498951 0.000000 2.095216
v -2.380776 0.000000 3.000293
v -3.147552 0.000000 2.837199
v -3.909299 0.000000 2.497781
v -4.685616 0.000000 2.224036
v -1.998878 0.000000 3.000293
v -2.498951 1.500000 2.095216
v 1.998878 0.100000 -7.000000
v 7.000000 2.000000 0.000000
v 5.406615 2.000000 0.000000
v 5.406615 2.000000 -2.095216
v 2.498951 2.000000 -2.095216
v 2.380776 0.229692 -3.000293
v 7.000000 2.000000 -2.837199
v 3.147552 0.789255 -2.837199
v 3.909299 1.410925 -2.497781
v 4.685616 1.862923 -2.224036
v 1.998878 0.100000 -5.000000
v 1.998878 0.100000 -3.000293
v 3.909299 1.410925 -3.775450
v 4.685616 1.862923 -3.413542
v 5.406615 2.000000 -3.189525
v 1.998878 0.100000 -4.200078
v 2.380776 0.229692 -4.201048
v 3.147552 0.789255 -4.049025
v 5.700327 2.000000 -3.123827
v 6.616085 2.000000 -3.123827
v 5.406615 0.000000 -2.095216
v 7.000000 0.000000 -3.000000
v 1.998878 0.000000 -5.000000
v 3.909299 0.000000 -3.775450
v 4.685616 0.000000 -3.413542
v 5.406615 0.000000 -3.189525
v 1.998878 0.000000 -4.200078
v 2.380776 0.000000 -4.201048
v 3.147552 0.000000 -4.049025
v 5.700327 0.000000 -3.123827
v 6.616085 0.000000 -3.123827
v 2.498951 0.000000 -2.095216
v 2.380776 0.000000 -3.000293
v 3.147552 0.000000 -2.837199
v 3.909299 0.000000 -2.497781
v 4.685616 0.000000 -2.224036
v 1.998878 0.000000 -3.000293
v 2.498951 1.500000 -2.095216
v -1.998878 0.000000 7.000000
v -1.998878 0.100000 7.000000
v -7.000000 2.000000 0.000000
v 1.998878 0.000000 -7.000000
v -5.406615 2.000000 0.000000
v -5.406615 2.000000 -2.095216
v -2.498951 2.000000 -2.095216
v -2.380776 0.229692 -3.000293
v -7.000000 2.000000 -2.837199
v -3.147552 0.789255 -2.837199
v -3.909299 1.410925 -2.497781
v -4.685616 1.862923 -2.224036
v -1.998878 0.100000 -5.000000
v -1.998878 0.100000 -3.000293
v -3.909299 1.410925 -3.775450
v -4.685616 1.862923 -3.413542
v -5.406615 2.000000 -3.189525
v -1.998878 0.100000 -4.200078
v -2.380776 0.229692 -4.201048
v -3.147552 0.789255 -4.049025
v -5.700327 2.000000 -3.123827
v -6.616085 2.000000 -3.123827
v -5.406615 0.000000 -2.095216
v -7.000000 0.000000 -3.000000
v -1.998878 0.000000 -5.000000
v -3.909299 0.000000 -3.775450
v -4.685616 0.000000 -3.413542
v -5.406615 0.000000 -3.189525
v -1.998878 0.000000 -4.200078
v -2.380776 0.000000 -4.201048
v -3.147552 0.000000 -4.049025
v -5.700327 0.000000 -3.123827
v -6.616085 0.000000 -3.123827
v -2.498951 0.000000 -2.095216
v -2.380776 0.000000 -3.000293
v -3.147552 0.000000 -2.837199
v -3.909299 0.000000 -2.497781
v -4.685616 0.000000 -2.224036
v -1.998878 0.000000 -3.000293
v -2.498951 1.500000 -2.095216
v 1.998878 0.000000 7.000000
v 1.998878 0.100000 7.000000
v -1.998878 0.000000 -7.000000
v -7.000000 2.000000 3.000000
v -6.616085 2.000000 3.123827
v -7.000000 0.000000 3.000000
v -6.616085 0.000000 3.123827
v 7.000000 2.000000 3.000000
v 6.616085 2.000000 3.123827
v 7.000000 2.000000 -3.000000
v 6.616085 2.000000 -3.123827
v -7.000000 2.000000 -3.000000
v -6.616085 2.000000 -3.123827
vt 0.562500 0.504883
vt 0.562500 0.593750
vt 0.512695 0.593750
vt 0.512695 0.528320
vt 0.512695 0.494141
vt 0.521484 0.496094
vt 0.550781 0.496094
vt 0.406250 0.437500
vt 0.406250 0.462891
vt 0.406250 0.500000
vt 0.281250 0.500000
vt 0.281250 0.462891
vt 0.281250 0.437500
vt 0.442383 0.466797
vt 0.442383 0.504883
vt 0.417969 0.500000
vt 0.417969 0.462891
vt 0.465820 0.515625
vt 0.465820 0.475586
vt 0.490234 0.487305
vt 0.490234 0.524414
vt 0.557617 0.937500
vt 0.546875 0.937500
vt 0.546875 0.875000
vt 0.557617 0.875000
vt 0.504883 0.881836
vt 0.500000 0.877930
vt 0.500000 0.875000
vt 0.504883 0.875000
vt 0.542969 0.937500
vt 0.534180 0.932617
vt 0.534180 0.875000
vt 0.542969 0.875000
vt 0.352539 0.905273
vt 0.340820 0.904297
vt 0.514648 0.899414
vt 0.514648 0.875000
vt 0.524414 0.918945
vt 0.524414 0.875000
vt 0.465916 0.515694
vt 0.490176 0.524249
vt 0.418149 0.499168
vt 0.442111 0.505088
vt 0.562500 0.937500
vt 0.545898 0.937500
vt 0.545898 0.921875
vt 0.545898 0.875000
vt 0.562500 0.875000
vt 0.406678 0.499168
vt 0.598633 0.899414
vt 0.437500 0.875000
vt 0.437500 0.750000
vt 0.500000 0.750000
vt 0.125000 0.504883
vt 0.136719 0.496094
vt 0.166016 0.496094
vt 0.174805 0.494141
vt 0.174805 0.528320
vt 0.174805 0.593750
vt 0.125000 0.593750
vt 0.265625 0.528320
vt 0.421875 0.528320
vt 0.245117 0.466797
vt 0.269531 0.462891
vt 0.269531 0.500000
vt 0.245117 0.504883
vt 0.221680 0.515625
vt 0.221680 0.475586
vt 0.197266 0.487305
vt 0.197266 0.524414
vt 0.504883 0.937500
vt 0.516602 0.875000
vt 0.516602 0.937500
vt 0.557617 0.881836
vt 0.562500 0.877930
vt 0.520508 0.937500
vt 0.520508 0.875000
vt 0.529297 0.875000
vt 0.529297 0.932617
vt 0.547852 0.899414
vt 0.547852 0.875000
vt 0.539062 0.918945
vt 0.539062 0.875000
vt 0.562500 0.750000
vt 0.375000 0.875000
vt 0.375000 0.750000
vt 0.500000 0.937500
vt 0.516602 0.921875
vn 0.000000 1.000000 0.000000
vn -0.589500 0.807800 0.000000
vn -0.632300 0.774700 0.000000
vn -0.321600 0.946900 0.000000
vn -0.503200 0.864200 0.000000
vn -0.186800 0.982400 0.000000
vn 0.000000 0.000000 1.000000
vn -0.002500 0.000000 1.000000
vn 0.296700 0.000000 0.955000
vn 1.000000 0.000000 0.000000
vn 0.194500 0.000000 0.980900
vn 0.338000 0.000000 0.941100
vn 0.218300 0.000000 0.975900
vn 0.422500 0.000000 0.906300
vn -0.332600 0.000000 -0.943100
vn -0.208000 0.000000 -0.978100
vn -0.407000 0.000000 -0.913400
vn -0.175900 0.000000 -0.984400
vn 0.000000 0.000000 -1.000000
vn 0.000000 -1.000000 0.000000
vn 0.589500 0.807800 0.000000
vn 0.632300 0.774700 0.000000
vn 0.321600 0.946900 0.000000
vn 0.503200 0.864200 0.000000
vn 0.186800 0.982400 0.000000
vn 0.002500 0.000000 1.000000
vn -0.296700 0.000000 0.955000
vn -1.000000 0.000000 0.000000
vn -0.194500 0.000000 0.980900
vn -0.338000 0.000000 0.941100
vn -0.218300 0.000000 0.975900
vn -0.422500 0.000000 0.906300
vn 0.332600 0.000000 -0.943100
vn 0.208000 0.000000 -0.978100
vn 0.407000 0.000000 -0.913400
vn 0.175900 0.000000 -0.984400
vn -0.002500 0.000000 -1.000000
vn 0.296700 0.000000 -0.955000
vn 0.194500 0.000000 -0.980900
vn 0.338000 0.000000 -0.941100
vn 0.218300 0.000000 -0.975900
vn 0.422500 0.000000 -0.906300
vn -0.332600 0.000000 0.943100
vn -0.208000 0.000000 0.978100
vn -0.407000 0.000000 0.913400
vn -0.175900 0.000000 0.984400
vn 0.002500 0.000000 -1.000000
vn -0.296700 0.000000 -0.955000
vn -0.194500 0.000000 -0.980900
vn -0.338000 0.000000 -0.941100
vn -0.218300 0.000000 -0.975900
vn -0.422500 0.000000 -0.906300
vn 0.332600 0.000000 0.943100
vn 0.208000 0.000000 0.978100
vn 0.407000 0.000000 0.913400
vn 0.175900 0.000000 0.984400
vn -0.307000 0.000000 0.951700
vn 0.307000 0.000000 0.951700
vn 0.307000 0.000000 -0.951700
vn -0.307000 0.000000 -0.951700
s off
f 4/1/1 72/2/1 73/3/1 1/4/1 12/5/1 16/6/1 17/7/1
f 121/8/1 126/9/1 122/10/1 82/11/1 86/12/1 81/13/1
f 15/14/2 5/15/2 3/16/2 14/17/2
f 6/18/3 5/15/3 15/14/3 10/19/3
f 14/17/4 3/16/4 9/10/4 13/9/4
f 11/20/5 7/21/5 6/18/5 10/19/5
f 12/5/6 1/4/6 7/21/6 11/20/6
f 17/22/7 16/23/7 27/24/7 28/25/7
f 14/26/8 13/27/8 24/28/8 25/29/8
f 12/30/9 11/31/9 22/32/9 23/33/9
f 13/34/10 8/34/10 20/34/10 24/34/10
f 17/35/1 157/35/1 156/35/1 4/35/1
f 15/36/11 14/26/11 25/29/11 26/37/11
f 10/38/12 15/36/12 26/37/12 21/39/12
f 16/23/13 12/30/13 23/33/13 27/24/13
f 11/31/14 10/38/14 21/39/14 22/32/14
f 34/34/10 107/34/10 82/34/10 9/34/10
f 6/40/15 7/41/15 33/41/15 32/40/15
f 3/42/16 5/43/16 31/43/16 30/42/16
f 5/43/17 6/40/17 32/40/17 31/43/17
f 1/44/7 2/45/7 35/46/7 29/47/7 18/48/7
f 7/41/18 1/4/18 18/4/18 33/41/18
f 9/49/19 3/42/19 30/42/19 34/49/19
f 142/50/10 148/50/10 70/50/10 64/50/10
f 8/51/1 44/52/1 110/53/1 150/28/1
f 108/50/20 35/50/20 70/50/20 148/50/20
f 40/54/1 53/55/1 52/56/1 48/57/1 37/58/1 113/59/1 111/60/1
f 38/61/1 2/62/1 1/4/1 73/3/1 113/59/1 37/58/1
f 51/63/21 50/64/21 39/65/21 41/66/21
f 42/67/22 46/68/22 51/63/22 41/66/22
f 50/64/23 49/12/23 45/11/23 39/65/23
f 47/69/24 46/68/24 42/67/24 43/70/24
f 48/57/25 47/69/25 43/70/25 37/58/25
f 53/71/7 63/29/7 62/72/7 52/73/7
f 50/74/26 60/25/26 59/48/26 49/75/26
f 48/76/27 58/77/27 57/78/27 47/79/27
f 49/34/28 59/34/28 55/34/28 44/34/28
f 53/35/1 40/35/1 152/35/1 153/35/1
f 51/80/29 61/81/29 60/25/29 50/74/29
f 44/13/1 8/8/1 13/9/1 9/10/1 45/11/1 49/12/1
f 46/82/30 56/83/30 61/81/30 51/80/30
f 52/73/31 62/72/31 58/77/31 48/76/31
f 47/79/32 57/78/32 56/83/32 46/82/32
f 82/84/1 122/48/1 45/85/1 9/86/1
f 42/40/33 67/40/33 68/41/33 43/41/33
f 39/42/34 65/42/34 66/43/34 41/43/34
f 41/43/35 66/43/35 67/40/35 42/40/35
f 37/87/7 54/28/7 64/72/7 70/88/7 38/73/7
f 43/41/36 68/41/36 54/4/36 37/4/36
f 45/49/19 69/49/19 65/42/19 39/42/19
f 133/34/28 121/34/28 36/34/28 151/34/28
f 121/84/1 81/48/1 71/28/1 36/53/1
f 20/34/10 8/34/10 150/34/10 149/34/10
f 77/54/1 90/55/1 89/56/1 85/57/1 74/58/1 73/59/1 72/60/1
f 113/3/1 73/59/1 74/58/1 75/61/1 115/62/1 114/4/1
f 88/63/2 87/64/2 76/65/2 78/66/2
f 79/67/3 83/68/3 88/63/3 78/66/3
f 87/64/4 86/12/4 82/11/4 76/65/4
f 84/69/5 83/68/5 79/67/5 80/70/5
f 85/57/6 84/69/6 80/70/6 74/58/6
f 90/22/19 101/25/19 100/24/19 89/23/19
f 87/26/37 98/29/37 97/28/37 86/27/37
f 85/30/38 96/33/38 95/32/38 84/31/38
f 86/34/10 97/34/10 93/34/10 81/34/10
f 90/35/1 77/35/1 158/35/1 159/35/1
f 88/36/39 99/37/39 98/29/39 87/26/39
f 83/38/40 94/39/40 99/37/40 88/36/40
f 89/23/41 100/24/41 96/33/41 85/30/41
f 84/31/42 95/32/42 94/39/42 83/38/42
f 79/40/43 105/40/43 106/41/43 80/41/43
f 76/42/44 103/42/44 104/43/44 78/43/44
f 78/43/45 104/43/45 105/40/45 79/40/45
f 74/44/19 91/48/19 102/47/19 108/46/19 75/45/19
f 80/41/46 106/41/46 91/4/46 74/4/46
f 82/49/7 107/49/7 103/42/7 76/42/7
f 102/50/28 29/50/28 35/50/28 108/50/28
f 117/1/1 111/2/1 113/3/1 114/4/1 125/5/1 129/6/1 130/7/1
f 128/14/21 118/15/21 116/16/21 127/17/21
f 119/18/22 118/15/22 128/14/22 123/19/22
f 127/17/23 116/16/23 122/10/23 126/9/23
f 124/20/24 120/21/24 119/18/24 123/19/24
f 125/5/25 114/4/25 120/21/25 124/20/25
f 130/71/19 129/73/19 140/72/19 141/29/19
f 127/74/47 126/75/47 137/48/47 138/25/47
f 125/76/48 124/79/48 135/78/48 136/77/48
f 126/34/28 121/34/28 133/34/28 137/34/28
f 130/35/1 161/35/1 160/35/1 117/35/1
f 128/80/49 127/74/49 138/25/49 139/81/49
f 123/82/50 128/80/50 139/81/50 134/83/50
f 129/73/51 125/76/51 136/77/51 140/72/51
f 124/79/52 123/82/52 134/83/52 135/78/52
f 119/40/53 120/41/53 146/41/53 145/40/53
f 116/42/54 118/43/54 144/43/54 143/42/54
f 118/43/55 119/40/55 145/40/55 144/43/55
f 114/87/19 115/73/19 148/88/19 142/72/19 131/28/19
f 120/41/56 114/4/56 131/4/56 146/41/56
f 122/49/7 116/42/7 143/42/7 147/49/7
f 81/34/10 93/34/10 112/34/10 71/34/10
f 44/34/28 55/34/28 109/34/28 110/34/28
f 45/34/28 122/34/28 147/34/28 69/34/28
f 152/87/57 154/28/57 155/29/57 153/71/57
f 63/29/7 53/71/7 153/71/7 155/29/7
f 19/48/58 156/48/58 157/25/58 28/25/58
f 101/25/59 159/25/59 158/48/59 92/48/59
f 132/28/60 160/28/60 161/29/60 141/29/60
f 2/45/7 38/73/7 70/88/7 35/46/7
f 108/46/19 148/88/19 115/73/19 75/45/19
