# Blender v2.75 (sub 0) OBJ File: 'stuff.blend'
# www.blender.org
o 2220_intersection_Plane.004
v -2.000000 0.000000 2.000000
v 2.000000 0.000000 2.000000
v -2.000000 0.000000 -2.000000
v 2.000000 0.000000 -2.000000
v -2.000000 0.100000 -2.000000
v -2.000000 0.100000 2.000000
v 2.000000 0.100000 2.000000
v 2.000000 0.100000 -2.000000
v 2.042240 -0.002066 1.957760
v 2.042240 1.645720 1.957760
v 2.042240 -0.002066 2.042239
v 2.042240 1.645720 2.042239
v 1.957761 -0.002066 1.957760
v 1.957761 1.645720 1.957760
v 1.957761 -0.002066 2.042240
v 1.957761 1.645720 2.042240
v 2.042240 1.645899 2.041888
v 2.042240 1.645899 0.353127
v 1.957761 1.645899 2.041888
v 1.957761 1.645899 0.353127
v 2.042240 1.561420 2.041888
v 2.042240 1.561420 0.353127
v 1.957761 1.561420 2.041888
v 1.957761 1.561420 0.353127
v 1.806720 1.330931 0.619079
v 1.806720 1.712102 0.619079
v 1.806720 1.330931 0.466611
v 1.806720 1.712102 0.466611
v 1.959189 1.330931 0.619079
v 1.959189 1.712102 0.619079
v 1.959189 1.330931 0.466611
v 1.959189 1.712102 0.466611
v 1.957760 -0.002066 -2.042240
v 1.957760 1.645720 -2.042240
v 2.042240 -0.002066 -2.042240
v 2.042240 1.645720 -2.042240
v 1.957760 -0.002066 -1.957761
v 1.957760 1.645720 -1.957761
v 2.042240 -0.002066 -1.957761
v 2.042240 1.645720 -1.957761
v 2.041888 1.645899 -2.042240
v 0.353127 1.645899 -2.042240
v 2.041888 1.645899 -1.957761
v 0.353127 1.645899 -1.957761
v 2.041888 1.561420 -2.042240
v 0.353127 1.561420 -2.042240
v 2.041888 1.561420 -1.957761
v 0.353127 1.561420 -1.957761
v 1.350740 1.330931 -1.806720
v 1.350740 1.712102 -1.806720
v 1.198272 1.330931 -1.806719
v 1.198272 1.712102 -1.806719
v 1.350740 1.330931 -1.959188
v 1.350740 1.712102 -1.959188
v 1.198272 1.330931 -1.959188
v 1.198272 1.712102 -1.959188
v 0.619079 1.330931 -1.806720
v 0.619079 1.712102 -1.806720
v 0.466611 1.330931 -1.806720
v 0.466611 1.712102 -1.806720
v 0.619079 1.330931 -1.959188
v 0.619079 1.712102 -1.959188
v 0.466611 1.330931 -1.959188
v 0.466611 1.712102 -1.959188
v -2.042239 -0.002066 -1.957760
v -2.042239 1.645720 -1.957760
v -2.042239 -0.002066 -2.042240
v -2.042239 1.645720 -2.042240
v -1.957760 -0.002066 -1.957760
v -1.957760 1.645720 -1.957760
v -1.957760 -0.002066 -2.042240
v -1.957760 1.645720 -2.042240
v -2.042239 1.645899 -2.041888
v -2.042240 1.645899 -0.353127
v -1.957760 1.645899 -2.041888
v -1.957760 1.645899 -0.353127
v -2.042239 1.561420 -2.041888
v -2.042240 1.561420 -0.353127
v -1.957760 1.561420 -2.041888
v -1.957760 1.561420 -0.353127
v -1.806719 1.330931 -1.350740
v -1.806719 1.712102 -1.350740
v -1.806719 1.330931 -1.198272
v -1.806719 1.712102 -1.198272
v -1.959188 1.330931 -1.350740
v -1.959188 1.712102 -1.350740
v -1.959188 1.330931 -1.198272
v -1.959188 1.712102 -1.198272
v -1.806720 1.330931 -0.619079
v -1.806720 1.712102 -0.619079
v -1.806720 1.330931 -0.466611
v -1.806720 1.712102 -0.466611
v -1.959188 1.330931 -0.619079
v -1.959188 1.712102 -0.619079
v -1.959188 1.330931 -0.466611
v -1.959188 1.712102 -0.466611
v 1.806719 1.330931 1.350740
v 1.806719 1.712102 1.350740
v 1.806719 1.330931 1.198272
v 1.806719 1.712102 1.198272
v 1.959188 1.330931 1.350740
v 1.959188 1.712102 1.350740
v 1.959188 1.330931 1.198272
v 1.959188 1.712102 1.198272
vt 0.363281 0.894531
vt 0.360352 0.924805
vt 0.329102 0.923828
vt 0.333008 0.893555
vt 0.437500 0.750000
vt 0.562500 0.750000
vt 0.562500 0.625000
vt 0.437500 0.625000
vt 0.332031 0.893555
vt 0.364258 0.893555
vt 0.328125 0.924805
vt 0.361328 0.924805
vt 0.465820 0.917969
vt 0.465820 0.894531
vt 0.466797 0.917969
vt 0.466797 0.894531
vt 0.473633 0.917969
vt 0.474609 0.917969
vt 0.474609 0.916992
vt 0.466797 0.916992
vt 0.473633 0.916992
vt 0.465820 0.916992
vt 0.399414 0.937500
vt 0.375000 0.937500
vt 0.375000 0.875000
vt 0.399414 0.875000
vt 0.411133 0.900391
vt 0.417969 0.909180
vt 0.417969 0.910156
vt 0.405273 0.918945
vt 0.429688 0.900391
vt 0.424805 0.918945
vn 0.000000 -1.000000 0.000000
vn 0.000000 1.000000 0.000000
vn 0.000000 0.000000 1.000000
vn 1.000000 0.000000 0.000000
vn -1.000000 0.000000 0.000000
vn 0.000000 0.000000 -1.000000
s off
f 1/1/1 3/2/1 4/3/1 2/4/1
f 6/5/2 7/6/2 8/7/2 5/8/2
f 1/1/3 2/4/3 7/9/3 6/10/3
f 2/4/4 4/3/4 8/11/4 7/9/4
f 3/2/5 1/1/5 6/10/5 5/12/5
f 4/3/6 3/2/6 5/12/6 8/11/6
f 10/13/4 12/13/4 11/14/4 9/14/4
f 12/13/3 16/15/3 15/16/3 11/14/3
f 16/15/5 14/15/5 13/16/5 15/16/5
f 14/15/6 10/13/6 9/14/6 13/16/6
f 9/14/1 11/14/1 15/16/1 13/16/1
f 14/15/2 16/15/2 12/13/2 10/13/2
f 18/17/2 20/18/2 19/15/2 17/13/2
f 20/18/5 24/19/5 23/20/5 19/15/5
f 24/19/1 22/21/1 21/22/1 23/20/1
f 22/21/4 18/17/4 17/13/4 21/22/4
f 17/13/3 19/15/3 23/20/3 21/22/3
f 22/21/6 24/19/6 20/18/6 18/17/6
f 26/23/5 28/24/5 27/25/5 25/26/5
f 28/27/6 32/28/6 31/29/6 27/30/6
f 32/28/4 30/29/4 29/29/4 31/29/4
f 30/29/3 26/31/3 25/32/3 29/29/3
f 25/32/1 27/30/1 31/29/1 29/29/1
f 30/29/2 32/28/2 28/27/2 26/31/2
f 34/13/6 36/13/6 35/14/6 33/14/6
f 36/13/4 40/15/4 39/16/4 35/14/4
f 40/15/3 38/15/3 37/16/3 39/16/3
f 38/15/5 34/13/5 33/14/5 37/16/5
f 33/14/1 35/14/1 39/16/1 37/16/1
f 38/15/2 40/15/2 36/13/2 34/13/2
f 42/17/2 44/18/2 43/15/2 41/13/2
f 44/18/3 48/19/3 47/20/3 43/15/3
f 48/19/1 46/21/1 45/22/1 47/20/1
f 46/21/6 42/17/6 41/13/6 45/22/6
f 41/13/4 43/15/4 47/20/4 45/22/4
f 46/21/5 48/19/5 44/18/5 42/17/5
f 50/23/3 52/24/3 51/25/3 49/26/3
f 52/27/5 56/28/5 55/29/5 51/30/5
f 56/28/6 54/29/6 53/29/6 55/29/6
f 54/29/4 50/31/4 49/32/4 53/29/4
f 49/32/1 51/30/1 55/29/1 53/29/1
f 54/29/2 56/28/2 52/27/2 50/31/2
f 58/23/3 60/24/3 59/25/3 57/26/3
f 60/27/5 64/28/5 63/29/5 59/30/5
f 64/28/6 62/29/6 61/29/6 63/29/6
f 62/29/4 58/31/4 57/32/4 61/29/4
f 57/32/1 59/30/1 63/29/1 61/29/1
f 62/29/2 64/28/2 60/27/2 58/31/2
f 66/13/5 68/13/5 67/14/5 65/14/5
f 68/13/6 72/15/6 71/16/6 67/14/6
f 72/15/4 70/15/4 69/16/4 71/16/4
f 70/15/3 66/13/3 65/14/3 69/16/3
f 65/14/1 67/14/1 71/16/1 69/16/1
f 70/15/2 72/15/2 68/13/2 66/13/2
f 74/17/2 76/18/2 75/15/2 73/13/2
f 76/18/4 80/19/4 79/20/4 75/15/4
f 80/19/1 78/21/1 77/22/1 79/20/1
f 78/21/5 74/17/5 73/13/5 77/22/5
f 73/13/6 75/15/6 79/20/6 77/22/6
f 78/21/3 80/19/3 76/18/3 74/17/3
f 82/23/4 84/24/4 83/25/4 81/26/4
f 84/27/3 88/28/3 87/29/3 83/30/3
f 88/28/5 86/29/5 85/29/5 87/29/5
f 86/29/6 82/31/6 81/32/6 85/29/6
f 81/32/1 83/30/1 87/29/1 85/29/1
f 86/29/2 88/28/2 84/27/2 82/31/2
f 90/23/4 92/24/4 91/25/4 89/26/4
f 92/27/3 96/28/3 95/29/3 91/30/3
f 96/28/5 94/29/5 93/29/5 95/29/5
f 94/29/6 90/31/6 89/32/6 93/29/6
f 89/32/1 91/30/1 95/29/1 93/29/1
f 94/29/2 96/28/2 92/27/2 90/31/2
f 98/23/5 100/24/5 99/25/5 97/26/5
f 100/27/6 104/28/6 103/29/6 99/30/6
f 104/28/4 102/29/4 101/29/4 103/29/4
f 102/29/3 98/31/3 97/32/3 101/29/3
f 97/32/1 99/30/1 103/29/1 101/29/1
f 102/29/2 104/28/2 100/27/2 98/31/2
