# Blender v2.75 (sub 0) OBJ File: 'stuff.blend'
# www.blender.org
o 2111_intersection_Plane.003
v -1.000000 0.000000 -2.000000
v -1.000000 0.100000 -2.000000
v -1.076120 0.000000 -1.617316
v -1.076120 0.100000 -1.617316
v -1.292893 0.000000 -1.292893
v -1.292893 0.100000 -1.292893
v -1.617316 0.000000 -1.076120
v -1.617316 0.100000 -1.076120
v -2.000000 0.000000 -1.000000
v -2.000000 0.100000 -1.000000
v 2.000000 0.000000 -1.000000
v 2.000000 0.100000 -1.000000
v 1.617317 0.000000 -1.076120
v 1.617317 0.100000 -1.076120
v 1.292893 0.000000 -1.292893
v 1.292893 0.100000 -1.292893
v 1.076120 0.000000 -1.617316
v 1.076120 0.100000 -1.617316
v 1.000000 0.000000 -2.000000
v 1.000000 0.100000 -2.000000
v -2.000000 0.000000 2.000000
v 2.000000 0.000000 2.000000
v -2.000000 0.100000 2.000000
v 2.000000 0.100000 2.000000
v 2.042240 -0.002066 1.957760
v 2.042240 1.645720 1.957760
v 2.042240 -0.002066 2.042239
v 2.042240 1.645720 2.042239
v 1.957761 -0.002066 1.957760
v 1.957761 1.645720 1.957760
v 1.957761 -0.002066 2.042240
v 1.957761 1.645720 2.042240
v 2.042240 1.645899 2.041888
v 2.042240 1.645899 0.353127
v 1.957761 1.645899 2.041888
v 1.957761 1.645899 0.353127
v 2.042240 1.561420 2.041888
v 2.042240 1.561420 0.353127
v 1.957761 1.561420 2.041888
v 1.957761 1.561420 0.353127
v 1.806720 1.330931 0.619079
v 1.806720 1.712102 0.619079
v 1.806720 1.330931 0.466611
v 1.806720 1.712102 0.466611
v 1.959189 1.330931 0.619079
v 1.959189 1.712102 0.619079
v 1.959189 1.330931 0.466611
v 1.959189 1.712102 0.466611
v 1.957760 -0.002066 -2.042240
v 1.957760 1.645720 -2.042240
v 2.042240 -0.002066 -2.042240
v 2.042240 1.645720 -2.042240
v 1.957760 -0.002066 -1.957761
v 1.957760 1.645720 -1.957761
v 2.042240 -0.002066 -1.957761
v 2.042240 1.645720 -1.957761
v 2.041888 1.645899 -2.042240
v 0.353127 1.645899 -2.042240
v 2.041888 1.645899 -1.957761
v 0.353127 1.645899 -1.957761
v 2.041888 1.561420 -2.042240
v 0.353127 1.561420 -2.042240
v 2.041888 1.561420 -1.957761
v 0.353127 1.561420 -1.957761
v 1.350740 1.330931 -1.806720
v 1.350740 1.712102 -1.806720
v 1.198272 1.330931 -1.806719
v 1.198272 1.712102 -1.806719
v 1.350740 1.330931 -1.959188
v 1.350740 1.712102 -1.959188
v 1.198272 1.330931 -1.959188
v 1.198272 1.712102 -1.959188
v 0.619079 1.330931 -1.806720
v 0.619079 1.712102 -1.806720
v 0.466611 1.330931 -1.806720
v 0.466611 1.712102 -1.806720
v 0.619079 1.330931 -1.959188
v 0.619079 1.712102 -1.959188
v 0.466611 1.330931 -1.959188
v 0.466611 1.712102 -1.959188
v -2.042239 -0.002066 -1.957760
v -2.042239 1.645720 -1.957760
v -2.042239 -0.002066 -2.042240
v -2.042239 1.645720 -2.042240
v -1.957760 -0.002066 -1.957760
v -1.957760 1.645720 -1.957760
v -1.957760 -0.002066 -2.042240
v -1.957760 1.645720 -2.042240
v -2.042239 1.645899 -2.041888
v -2.042240 1.645899 -0.353127
v -1.957760 1.645899 -2.041888
v -1.957760 1.645899 -0.353127
v -2.042239 1.561420 -2.041888
v -2.042240 1.561420 -0.353127
v -1.957760 1.561420 -2.041888
v -1.957760 1.561420 -0.353127
v -1.806720 1.330931 -0.619079
v -1.806720 1.712102 -0.619079
v -1.806720 1.330931 -0.466611
v -1.806720 1.712102 -0.466611
v -1.959188 1.330931 -0.619079
v -1.959188 1.712102 -0.619079
v -1.959188 1.330931 -0.466611
v -1.959188 1.712102 -0.466611
v -1.957760 -0.002067 2.042239
v -1.957760 1.645720 2.042239
v -2.042239 -0.002067 2.042239
v -2.042239 1.645720 2.042239
v -1.957760 -0.002067 1.957760
v -1.957760 1.645720 1.957760
v -2.042239 -0.002067 1.957760
v -2.042239 1.645720 1.957760
v -2.041888 1.645899 2.042239
v -0.353127 1.645899 2.042240
v -2.041888 1.645899 1.957760
v -0.353127 1.645899 1.957760
v -2.041888 1.561420 2.042239
v -0.353127 1.561420 2.042240
v -2.041888 1.561420 1.957760
v -0.353127 1.561420 1.957760
v -0.619079 1.330931 1.806720
v -0.619079 1.712102 1.806720
v -0.466611 1.330931 1.806720
v -0.466611 1.712102 1.806720
v -0.619080 1.330931 1.959188
v -0.619080 1.712102 1.959188
v -0.466611 1.330931 1.959188
v -0.466611 1.712102 1.959188
vt 0.349609 0.904297
vt 0.348633 0.904297
vt 0.346680 0.904297
vt 0.345703 0.904297
vt 0.344727 0.904297
vt 0.343750 0.904297
vt 0.352539 0.895508
vt 0.352539 0.896484
vt 0.353516 0.895508
vt 0.351562 0.897461
vt 0.352539 0.897461
vt 0.352539 0.899414
vt 0.352539 0.900391
vt 0.665039 0.647461
vt 0.562500 0.750000
vt 0.687500 0.750000
vt 0.343750 0.902344
vt 0.344727 0.902344
vt 0.346680 0.889648
vt 0.338867 0.896484
vt 0.465820 0.917969
vt 0.465820 0.894531
vt 0.466797 0.917969
vt 0.466797 0.894531
vt 0.894840 0.000100
vt 0.894840 0.015499
vt 0.879441 0.015499
vt 0.879441 0.000100
vt 0.473633 0.917969
vt 0.474609 0.917969
vt 0.474609 0.916992
vt 0.466797 0.916992
vt 0.473633 0.916992
vt 0.465820 0.916992
vt 0.399414 0.937500
vt 0.375000 0.937500
vt 0.375000 0.875000
vt 0.399414 0.875000
vt 0.411133 0.900391
vt 0.417969 0.909180
vt 0.417969 0.910156
vt 0.405273 0.918945
vt 0.429688 0.900391
vt 0.424805 0.918945
vt 0.879441 0.031298
vt 0.894840 0.031298
vt 0.894840 0.046697
vt 0.879441 0.046697
vt 0.879441 0.046897
vt 0.894840 0.046897
vt 0.894840 0.062296
vt 0.879441 0.062296
vt 0.879441 0.015699
vt 0.894840 0.015699
vt 0.894840 0.031098
vt 0.879441 0.031098
vt 0.574219 0.654297
vt 0.562500 0.656250
vt 0.591797 0.636719
vt 0.656250 0.625000
vt 0.593750 0.625000
vt 0.584961 0.647461
vt 0.658203 0.636719
vt 0.675781 0.654297
vt 0.687500 0.656250
vn -0.980800 0.000000 -0.195100
vn -0.831500 0.000000 -0.555600
vn -0.555600 0.000000 -0.831500
vn -0.195100 0.000000 -0.980800
vn 0.195100 0.000000 -0.980800
vn 0.555600 0.000000 -0.831500
vn 0.831500 0.000000 -0.555600
vn 0.980800 0.000000 -0.195100
vn 0.000000 1.000000 0.000000
vn 0.000000 0.000000 -1.000000
vn 0.000000 0.000000 1.000000
vn 1.000000 0.000000 0.000000
vn -1.000000 0.000000 -0.000000
vn 0.000000 -1.000000 0.000000
s off
f 1/1/1 3/2/1 4/2/1 2/1/1
f 3/2/2 5/3/2 6/3/2 4/2/2
f 5/3/3 7/4/3 8/4/3 6/3/3
f 7/4/4 9/5/4 10/6/4 8/4/4
f 11/7/5 13/8/5 14/8/5 12/9/5
f 13/8/6 15/10/6 16/11/6 14/8/6
f 15/10/7 17/12/7 18/12/7 16/11/7
f 17/12/8 19/13/8 20/13/8 18/12/8
f 16/14/9 23/15/9 24/16/9
f 1/1/10 2/1/10 20/13/10 19/13/10
f 21/17/11 22/18/11 24/18/11 23/17/11
f 12/9/12 24/18/12 22/19/12 11/7/12
f 9/5/13 21/17/13 23/20/13 10/6/13
f 26/21/12 28/21/12 27/22/12 25/22/12
f 28/21/11 32/23/11 31/24/11 27/22/11
f 32/23/13 30/23/13 29/24/13 31/24/13
f 30/23/10 26/21/10 25/22/10 29/24/10
f 25/25/14 27/26/14 31/27/14 29/28/14
f 30/23/9 32/23/9 28/21/9 26/21/9
f 34/29/9 36/30/9 35/23/9 33/21/9
f 36/30/13 40/31/13 39/32/13 35/23/13
f 40/31/14 38/33/14 37/34/14 39/32/14
f 38/33/12 34/29/12 33/21/12 37/34/12
f 33/21/11 35/23/11 39/32/11 37/34/11
f 38/33/10 40/31/10 36/30/10 34/29/10
f 42/35/13 44/36/13 43/37/13 41/38/13
f 44/39/10 48/40/10 47/41/10 43/42/10
f 48/40/12 46/41/12 45/41/12 47/41/12
f 46/41/11 42/43/11 41/44/11 45/41/11
f 41/44/14 43/42/14 47/41/14 45/41/14
f 46/41/9 48/40/9 44/39/9 42/43/9
f 50/21/10 52/21/10 51/22/10 49/22/10
f 52/21/12 56/23/12 55/24/12 51/22/12
f 56/23/11 54/23/11 53/24/11 55/24/11
f 54/23/13 50/21/13 49/22/13 53/24/13
f 49/45/14 51/46/14 55/47/14 53/48/14
f 54/23/9 56/23/9 52/21/9 50/21/9
f 58/29/9 60/30/9 59/23/9 57/21/9
f 60/30/11 64/31/11 63/32/11 59/23/11
f 64/31/14 62/33/14 61/34/14 63/32/14
f 62/33/10 58/29/10 57/21/10 61/34/10
f 57/21/12 59/23/12 63/32/12 61/34/12
f 62/33/13 64/31/13 60/30/13 58/29/13
f 66/35/11 68/36/11 67/37/11 65/38/11
f 68/39/13 72/40/13 71/41/13 67/42/13
f 72/40/10 70/41/10 69/41/10 71/41/10
f 70/41/12 66/43/12 65/44/12 69/41/12
f 65/44/14 67/42/14 71/41/14 69/41/14
f 70/41/9 72/40/9 68/39/9 66/43/9
f 74/35/11 76/36/11 75/37/11 73/38/11
f 76/39/13 80/40/13 79/41/13 75/42/13
f 80/40/10 78/41/10 77/41/10 79/41/10
f 78/41/12 74/43/12 73/44/12 77/41/12
f 73/44/14 75/42/14 79/41/14 77/41/14
f 78/41/9 80/40/9 76/39/9 74/43/9
f 82/21/13 84/21/13 83/22/13 81/22/13
f 84/21/10 88/23/10 87/24/10 83/22/10
f 88/23/12 86/23/12 85/24/12 87/24/12
f 86/23/11 82/21/11 81/22/11 85/24/11
f 81/49/14 83/50/14 87/51/14 85/52/14
f 86/23/9 88/23/9 84/21/9 82/21/9
f 90/29/9 92/30/9 91/23/9 89/21/9
f 92/30/12 96/31/12 95/32/12 91/23/12
f 96/31/14 94/33/14 93/34/14 95/32/14
f 94/33/13 90/29/13 89/21/13 93/34/13
f 89/21/10 91/23/10 95/32/10 93/34/10
f 94/33/11 96/31/11 92/30/11 90/29/11
f 98/35/12 100/36/12 99/37/12 97/38/12
f 100/39/11 104/40/11 103/41/11 99/42/11
f 104/40/13 102/41/13 101/41/13 103/41/13
f 102/41/10 98/43/10 97/44/10 101/41/10
f 97/44/14 99/42/14 103/41/14 101/41/14
f 102/41/9 104/40/9 100/39/9 98/43/9
f 106/21/11 108/21/11 107/22/11 105/22/11
f 108/21/13 112/23/13 111/24/13 107/22/13
f 112/23/10 110/23/10 109/24/10 111/24/10
f 110/23/12 106/21/12 105/22/12 109/24/12
f 105/53/14 107/54/14 111/55/14 109/56/14
f 110/23/9 112/23/9 108/21/9 106/21/9
f 114/29/9 116/30/9 115/23/9 113/21/9
f 116/30/10 120/31/10 119/32/10 115/23/10
f 120/31/14 118/33/14 117/34/14 119/32/14
f 118/33/11 114/29/11 113/21/11 117/34/11
f 113/21/13 115/23/13 119/32/13 117/34/13
f 118/33/12 120/31/12 116/30/12 114/29/12
f 122/35/10 124/36/10 123/37/10 121/38/10
f 124/39/12 128/40/12 127/41/12 123/42/12
f 128/40/11 126/41/11 125/41/11 127/41/11
f 126/41/13 122/43/13 121/44/13 125/41/13
f 121/44/14 123/42/14 127/41/14 125/41/14
f 126/41/9 128/40/9 124/39/9 122/43/9
f 23/15/9 8/57/9 10/58/9
f 4/59/9 20/60/9 2/61/9
f 23/15/9 6/62/9 8/57/9
f 18/63/9 20/60/9 4/59/9
f 14/64/9 24/16/9 12/65/9
f 6/62/9 18/63/9 4/59/9
f 16/14/9 24/16/9 14/64/9
f 6/62/9 16/14/9 18/63/9
f 16/14/9 6/62/9 23/15/9
