# Blender v2.75 (sub 0) OBJ File: 'stuff.blend'
# www.blender.org
o 3232_intersection_Cube.015
v 2.042240 -0.002066 3.957762
v 2.042240 1.645720 3.957762
v 2.042240 -0.002066 4.042241
v 2.042240 1.645720 4.042241
v 1.957761 -0.002066 3.957762
v 1.957761 1.645720 3.957762
v 1.957761 -0.002066 4.042241
v 1.957761 1.645720 4.042241
v 2.042240 1.645899 4.041889
v 2.042241 1.645899 3.366406
v 1.957761 1.645899 4.041889
v 1.957762 1.645899 3.366406
v 2.042240 1.561420 4.041889
v 2.042241 1.561420 3.366406
v 1.957761 1.561420 4.041889
v 1.957762 1.561420 3.366406
v 1.805870 1.330931 3.684373
v 1.805870 1.712102 3.684373
v 1.805870 1.330931 3.531904
v 1.805870 1.712102 3.531904
v 1.958338 1.330931 3.684373
v 1.958338 1.712102 3.684373
v 1.958338 1.330931 3.531904
v 1.958338 1.712102 3.531904
v 1.957761 -0.002066 2.957761
v 1.957761 1.645720 2.957761
v 2.042240 -0.002066 2.957761
v 2.042240 1.645720 2.957761
v 1.957761 -0.002066 3.042240
v 1.957761 1.645720 3.042240
v 2.042240 -0.002066 3.042240
v 2.042240 1.645720 3.042240
v 2.041888 1.645899 2.957760
v 0.353127 1.645899 2.957760
v 2.041888 1.645899 3.042240
v 0.353127 1.645899 3.042239
v 2.041888 1.561420 2.957760
v 0.353127 1.561420 2.957760
v 2.041888 1.561420 3.042240
v 0.353127 1.561420 3.042239
v 0.619080 1.330931 3.201147
v 0.619080 1.712102 3.201147
v 0.466611 1.330931 3.201147
v 0.466611 1.712102 3.201147
v 0.619080 1.330931 3.048679
v 0.619080 1.712102 3.048679
v 0.466611 1.330931 3.048679
v 0.466611 1.712102 3.048679
v 1.350740 1.330931 3.201147
v 1.350740 1.712102 3.201147
v 1.198272 1.330931 3.201147
v 1.198272 1.712102 3.201147
v 1.350740 1.330931 3.048679
v 1.350740 1.712102 3.048679
v 1.198272 1.330931 3.048679
v 1.198272 1.712102 3.048679
v -1.957760 -0.002066 -2.957761
v -1.957760 1.645720 -2.957761
v -2.042240 -0.002066 -2.957761
v -2.042240 1.645720 -2.957761
v -1.957760 -0.002066 -3.042240
v -1.957760 1.645720 -3.042240
v -2.042240 -0.002066 -3.042240
v -2.042240 1.645720 -3.042240
v -2.041888 1.645899 -2.957760
v -0.353127 1.645899 -2.957760
v -2.041888 1.645899 -3.042239
v -0.353127 1.645899 -3.042239
v -2.041888 1.561420 -2.957760
v -0.353127 1.561420 -2.957760
v -2.041888 1.561420 -3.042239
v -0.353127 1.561420 -3.042239
v -0.619079 1.330931 -3.201147
v -0.619079 1.712102 -3.201147
v -0.466611 1.330931 -3.201147
v -0.466611 1.712102 -3.201147
v -0.619079 1.330931 -3.048678
v -0.619079 1.712102 -3.048678
v -0.466611 1.330931 -3.048678
v -0.466611 1.712102 -3.048678
v -1.350740 1.330931 -3.201147
v -1.350740 1.712102 -3.201147
v -1.198272 1.330931 -3.201147
v -1.198272 1.712102 -3.201147
v -1.350740 1.330931 -3.048678
v -1.350740 1.712102 -3.048678
v -1.198272 1.330931 -3.048678
v -1.198272 1.712102 -3.048678
v -2.042240 -0.002066 -3.957761
v -2.042240 1.645720 -3.957761
v -2.042240 -0.002066 -4.042240
v -2.042240 1.645720 -4.042240
v -1.957761 -0.002066 -3.957761
v -1.957761 1.645720 -3.957761
v -1.957761 -0.002066 -4.042240
v -1.957761 1.645720 -4.042240
v -2.042241 1.645899 -4.041889
v -2.042241 1.645899 -3.366406
v -1.957761 1.645899 -4.041889
v -1.957762 1.645899 -3.366406
v -2.042241 1.561420 -4.041889
v -2.042241 1.561420 -3.366406
v -1.957761 1.561420 -4.041889
v -1.957762 1.561420 -3.366406
v -1.805870 1.330931 -3.684372
v -1.805870 1.712102 -3.684372
v -1.805870 1.330931 -3.531904
v -1.805870 1.712102 -3.531904
v -1.958338 1.330931 -3.684372
v -1.958338 1.712102 -3.684372
v -1.958338 1.330931 -3.531904
v -1.958338 1.712102 -3.531904
v 5.406615 2.000000 2.095216
v 2.498951 2.000000 2.095216
v 2.380776 0.229692 3.000293
v 7.000000 2.000000 2.837199
v 3.147552 0.789255 2.837199
v 3.909299 1.410925 2.497781
v 4.685616 1.862923 2.224036
v 1.998878 0.100000 5.000000
v 1.998878 0.100000 3.000293
v 3.909299 1.410925 3.775450
v 4.685616 1.862923 3.413542
v 5.406615 2.000000 3.189525
v 1.998878 0.100000 4.200078
v 2.380776 0.229692 4.201048
v 3.147552 0.789255 4.049025
v 5.700327 2.000000 3.123827
v 6.616085 2.000000 3.123827
v 5.406615 0.000000 2.095216
v 7.000000 0.000000 3.000000
v 1.998878 0.000000 5.000000
v 3.909299 0.000000 3.775450
v 4.685616 0.000000 3.413542
v 5.406615 0.000000 3.189525
v 1.998878 0.000000 4.200078
v 2.380776 0.000000 4.201048
v 3.147552 0.000000 4.049025
v 5.700327 0.000000 3.123827
v 6.616085 0.000000 3.123827
v 2.498951 0.000000 2.095216
v 2.380776 0.000000 3.000293
v 3.147552 0.000000 2.837199
v 3.909299 0.000000 2.497781
v 4.685616 0.000000 2.224036
v 1.998878 0.000000 3.000293
v 2.498951 1.500000 2.095216
v -1.998878 0.100000 -7.000000
v -5.406615 2.000000 2.095216
v -2.498951 2.000000 2.095216
v -2.380776 0.229692 3.000293
v -7.000000 2.000000 2.837199
v -3.147552 0.789255 2.837199
v -3.909299 1.410925 2.497781
v -4.685616 1.862923 2.224036
v -1.998878 0.100000 5.000000
v -1.998878 0.100000 3.000293
v -3.909299 1.410925 3.775450
v -4.685616 1.862923 3.413542
v -5.406615 2.000000 3.189525
v -1.998878 0.100000 4.200078
v -2.380776 0.229692 4.201048
v -3.147552 0.789255 4.049025
v -5.700327 2.000000 3.123827
v -6.616085 2.000000 3.123827
v -5.406615 0.000000 2.095216
v -1.998878 0.000000 5.000000
v -3.909299 0.000000 3.775450
v -4.685616 0.000000 3.413542
v -5.406615 0.000000 3.189525
v -1.998878 0.000000 4.200078
v -2.380776 0.000000 4.201048
v -3.147552 0.000000 4.049025
v -5.700327 0.000000 3.123827
v -6.616085 0.000000 3.123827
v -2.498951 0.000000 2.095216
v -2.380776 0.000000 3.000293
v -3.147552 0.000000 2.837199
v -3.909299 0.000000 2.497781
v -4.685616 0.000000 2.224036
v -1.998878 0.000000 3.000293
v -2.498951 1.500000 2.095216
v 1.998878 0.100000 -7.000000
v 7.000000 2.000000 0.000000
v 5.406615 2.000000 0.000000
v 5.406615 2.000000 -2.095216
v 2.498951 2.000000 -2.095216
v 2.380776 0.229692 -3.000293
v 7.000000 2.000000 -2.837199
v 3.147552 0.789255 -2.837199
v 3.909299 1.410925 -2.497781
v 4.685616 1.862923 -2.224036
v 1.998878 0.100000 -5.000000
v 1.998878 0.100000 -3.000293
v 3.909299 1.410925 -3.775450
v 4.685616 1.862923 -3.413542
v 5.406615 2.000000 -3.189525
v 1.998878 0.100000 -4.200078
v 2.380776 0.229692 -4.201048
v 3.147552 0.789255 -4.049025
v 5.700327 2.000000 -3.123827
v 6.616085 2.000000 -3.123827
v 5.406615 0.000000 -2.095216
v 7.000000 0.000000 -3.000000
v 1.998878 0.000000 -5.000000
v 3.909299 0.000000 -3.775450
v 4.685616 0.000000 -3.413542
v 5.406615 0.000000 -3.189525
v 1.998878 0.000000 -4.200078
v 2.380776 0.000000 -4.201048
v 3.147552 0.000000 -4.049025
v 5.700327 0.000000 -3.123827
v 6.616085 0.000000 -3.123827
v 2.498951 0.000000 -2.095216
v 2.380776 0.000000 -3.000293
v 3.147552 0.000000 -2.837199
v 3.909299 0.000000 -2.497781
v 4.685616 0.000000 -2.224036
v 1.998878 0.000000 -3.000293
v 2.498951 1.500000 -2.095216
v -1.998878 0.000000 7.000000
v -1.998878 0.100000 7.000000
v -7.000000 2.000000 0.000000
v 1.998878 0.000000 -7.000000
v -5.406615 2.000000 0.000000
v -5.406615 2.000000 -2.095216
v -2.498951 2.000000 -2.095216
v -2.380776 0.229692 -3.000293
v -7.000000 2.000000 -2.837199
v -3.147552 0.789255 -2.837199
v -3.909299 1.410925 -2.497781
v -4.685616 1.862923 -2.224036
v -1.998878 0.100000 -5.000000
v -1.998878 0.100000 -3.000293
v -3.909299 1.410925 -3.775450
v -4.685616 1.862923 -3.413542
v -5.406615 2.000000 -3.189525
v -1.998878 0.100000 -4.200078
v -2.380776 0.229692 -4.201048
v -3.147552 0.789255 -4.049025
v -5.700327 2.000000 -3.123827
v -6.616085 2.000000 -3.123827
v -5.406615 0.000000 -2.095216
v -7.000000 0.000000 -3.000000
v -1.998878 0.000000 -5.000000
v -3.909299 0.000000 -3.775450
v -4.685616 0.000000 -3.413542
v -5.406615 0.000000 -3.189525
v -1.998878 0.000000 -4.200078
v -2.380776 0.000000 -4.201048
v -3.147552 0.000000 -4.049025
v -5.700327 0.000000 -3.123827
v -6.616085 0.000000 -3.123827
v -2.498951 0.000000 -2.095216
v -2.380776 0.000000 -3.000293
v -3.147552 0.000000 -2.837199
v -3.909299 0.000000 -2.497781
v -4.685616 0.000000 -2.224036
v -1.998878 0.000000 -3.000293
v -2.498951 1.500000 -2.095216
v 1.998878 0.000000 7.000000
v 1.998878 0.100000 7.000000
v -1.998878 0.000000 -7.000000
v -7.000000 2.000000 3.000000
v -6.616085 2.000000 3.123827
v -7.000000 0.000000 3.000000
v -6.616085 0.000000 3.123827
v 7.000000 2.000000 3.000000
v 6.616085 2.000000 3.123827
v 7.000000 2.000000 -3.000000
v 6.616085 2.000000 -3.123827
v -7.000000 2.000000 -3.000000
v -6.616085 2.000000 -3.123827
vt 0.458008 0.918945
vt 0.456055 0.918945
vt 0.456055 0.890625
vt 0.458008 0.890625
vt 0.457031 0.918945
vt 0.457031 0.890625
vt 0.471680 0.918945
vt 0.470703 0.918945
vt 0.470703 0.916992
vt 0.456055 0.916992
vt 0.471680 0.916992
vt 0.399414 0.937500
vt 0.375000 0.937500
vt 0.375000 0.875000
vt 0.399414 0.875000
vt 0.411133 0.900391
vt 0.417969 0.909180
vt 0.417969 0.910156
vt 0.405273 0.918945
vt 0.429688 0.900391
vt 0.424805 0.918945
vt 0.465820 0.917969
vt 0.465820 0.894531
vt 0.466797 0.917969
vt 0.466797 0.894531
vt 0.473633 0.917969
vt 0.474609 0.917969
vt 0.474609 0.916992
vt 0.466797 0.916992
vt 0.473633 0.916992
vt 0.465820 0.916992
vt 0.562500 0.504883
vt 0.562500 0.593750
vt 0.512695 0.593750
vt 0.512695 0.528320
vt 0.512695 0.494141
vt 0.521484 0.496094
vt 0.550781 0.496094
vt 0.406250 0.437500
vt 0.406250 0.462891
vt 0.406250 0.500000
vt 0.281250 0.500000
vt 0.281250 0.462891
vt 0.281250 0.437500
vt 0.442383 0.466797
vt 0.442383 0.504883
vt 0.417969 0.500000
vt 0.417969 0.462891
vt 0.465820 0.515625
vt 0.465820 0.475586
vt 0.490234 0.487305
vt 0.490234 0.524414
vt 0.557617 0.937500
vt 0.546875 0.937500
vt 0.546875 0.875000
vt 0.557617 0.875000
vt 0.504883 0.881836
vt 0.500000 0.877930
vt 0.500000 0.875000
vt 0.504883 0.875000
vt 0.542969 0.937500
vt 0.534180 0.932617
vt 0.534180 0.875000
vt 0.542969 0.875000
vt 0.352539 0.905273
vt 0.340820 0.904297
vt 0.514648 0.899414
vt 0.514648 0.875000
vt 0.524414 0.918945
vt 0.524414 0.875000
vt 0.465916 0.515694
vt 0.490176 0.524249
vt 0.418149 0.499168
vt 0.442111 0.505088
vt 0.562500 0.937500
vt 0.545898 0.937500
vt 0.545898 0.921875
vt 0.545898 0.875000
vt 0.562500 0.875000
vt 0.406678 0.499168
vt 0.598633 0.899414
vt 0.437500 0.875000
vt 0.437500 0.750000
vt 0.500000 0.750000
vt 0.125000 0.504883
vt 0.136719 0.496094
vt 0.166016 0.496094
vt 0.174805 0.494141
vt 0.174805 0.528320
vt 0.174805 0.593750
vt 0.125000 0.593750
vt 0.265625 0.528320
vt 0.421875 0.528320
vt 0.245117 0.466797
vt 0.269531 0.462891
vt 0.269531 0.500000
vt 0.245117 0.504883
vt 0.221680 0.515625
vt 0.221680 0.475586
vt 0.197266 0.487305
vt 0.197266 0.524414
vt 0.504883 0.937500
vt 0.516602 0.875000
vt 0.516602 0.937500
vt 0.557617 0.881836
vt 0.562500 0.877930
vt 0.520508 0.937500
vt 0.520508 0.875000
vt 0.529297 0.875000
vt 0.529297 0.932617
vt 0.547852 0.899414
vt 0.547852 0.875000
vt 0.539062 0.918945
vt 0.539062 0.875000
vt 0.562500 0.750000
vt 0.375000 0.750000
vt 0.500000 0.937500
vt 0.516602 0.921875
vn 1.000000 0.000000 0.000000
vn 0.000000 0.000000 1.000000
vn -1.000000 0.000000 0.000000
vn 0.000000 0.000000 -1.000000
vn 0.000000 -1.000000 0.000000
vn 0.000000 1.000000 0.000000
vn -0.589500 0.807800 0.000000
vn -0.632300 0.774700 0.000000
vn -0.321600 0.946900 0.000000
vn -0.503200 0.864200 0.000000
vn -0.186800 0.982400 0.000000
vn -0.002500 0.000000 1.000000
vn 0.296700 0.000000 0.955000
vn 0.194500 0.000000 0.980900
vn 0.338000 0.000000 0.941100
vn 0.218300 0.000000 0.975900
vn 0.422500 0.000000 0.906300
vn -0.332600 0.000000 -0.943100
vn -0.208000 0.000000 -0.978100
vn -0.407000 0.000000 -0.913400
vn -0.175900 0.000000 -0.984400
vn 0.589500 0.807800 0.000000
vn 0.632300 0.774700 0.000000
vn 0.321600 0.946900 0.000000
vn 0.503200 0.864200 0.000000
vn 0.186800 0.982400 0.000000
vn 0.002500 0.000000 1.000000
vn -0.296700 0.000000 0.955000
vn -0.194500 0.000000 0.980900
vn -0.338000 0.000000 0.941100
vn -0.218300 0.000000 0.975900
vn -0.422500 0.000000 0.906300
vn 0.332600 0.000000 -0.943100
vn 0.208000 0.000000 -0.978100
vn 0.407000 0.000000 -0.913400
vn 0.175900 0.000000 -0.984400
vn -0.002500 0.000000 -1.000000
vn 0.296700 0.000000 -0.955000
vn 0.194500 0.000000 -0.980900
vn 0.338000 0.000000 -0.941100
vn 0.218300 0.000000 -0.975900
vn 0.422500 0.000000 -0.906300
vn -0.332600 0.000000 0.943100
vn -0.208000 0.000000 0.978100
vn -0.407000 0.000000 0.913400
vn -0.175900 0.000000 0.984400
vn 0.002500 0.000000 -1.000000
vn -0.296700 0.000000 -0.955000
vn -0.194500 0.000000 -0.980900
vn -0.338000 0.000000 -0.941100
vn -0.218300 0.000000 -0.975900
vn -0.422500 0.000000 -0.906300
vn 0.332600 0.000000 0.943100
vn 0.208000 0.000000 0.978100
vn 0.407000 0.000000 0.913400
vn 0.175900 0.000000 0.984400
vn -0.307000 0.000000 0.951700
vn 0.307000 0.000000 0.951700
vn 0.307000 0.000000 -0.951700
vn -0.307000 0.000000 -0.951700
s off
f 2/1/1 4/2/1 3/3/1 1/4/1
f 4/2/2 8/2/2 7/3/2 3/3/2
f 8/2/3 6/5/3 5/6/3 7/3/3
f 6/5/4 2/1/4 1/4/4 5/6/4
f 1/4/5 3/3/5 7/3/5 5/6/5
f 6/5/6 8/2/6 4/2/6 2/1/6
f 10/7/6 12/8/6 11/2/6 9/2/6
f 12/8/3 16/9/3 15/10/3 11/2/3
f 16/9/5 14/11/5 13/10/5 15/10/5
f 14/11/1 10/7/1 9/2/1 13/10/1
f 9/2/2 11/2/2 15/10/2 13/10/2
f 14/11/4 16/9/4 12/8/4 10/7/4
f 18/12/3 20/13/3 19/14/3 17/15/3
f 20/16/4 24/17/4 23/18/4 19/19/4
f 24/17/1 22/18/1 21/18/1 23/18/1
f 22/18/2 18/20/2 17/21/2 21/18/2
f 17/21/5 19/19/5 23/18/5 21/18/5
f 22/18/6 24/17/6 20/16/6 18/20/6
f 26/22/4 28/22/4 27/23/4 25/23/4
f 28/22/1 32/24/1 31/25/1 27/23/1
f 32/24/2 30/24/2 29/25/2 31/25/2
f 30/24/3 26/22/3 25/23/3 29/25/3
f 25/23/5 27/23/5 31/25/5 29/25/5
f 30/24/6 32/24/6 28/22/6 26/22/6
f 34/26/6 36/27/6 35/24/6 33/22/6
f 36/27/2 40/28/2 39/29/2 35/24/2
f 40/28/5 38/30/5 37/31/5 39/29/5
f 38/30/4 34/26/4 33/22/4 37/31/4
f 33/22/1 35/24/1 39/29/1 37/31/1
f 38/30/3 40/28/3 36/27/3 34/26/3
f 42/12/2 44/13/2 43/14/2 41/15/2
f 44/16/3 48/17/3 47/18/3 43/19/3
f 48/17/4 46/18/4 45/18/4 47/18/4
f 46/18/1 42/20/1 41/21/1 45/18/1
f 41/21/5 43/19/5 47/18/5 45/18/5
f 46/18/6 48/17/6 44/16/6 42/20/6
f 50/12/2 52/13/2 51/14/2 49/15/2
f 52/16/3 56/17/3 55/18/3 51/19/3
f 56/17/4 54/18/4 53/18/4 55/18/4
f 54/18/1 50/20/1 49/21/1 53/18/1
f 49/21/5 51/19/5 55/18/5 53/18/5
f 54/18/6 56/17/6 52/16/6 50/20/6
f 58/22/2 60/22/2 59/23/2 57/23/2
f 60/22/3 64/24/3 63/25/3 59/23/3
f 64/24/4 62/24/4 61/25/4 63/25/4
f 62/24/1 58/22/1 57/23/1 61/25/1
f 57/23/5 59/23/5 63/25/5 61/25/5
f 62/24/6 64/24/6 60/22/6 58/22/6
f 66/26/6 68/27/6 67/24/6 65/22/6
f 68/27/4 72/28/4 71/29/4 67/24/4
f 72/28/5 70/30/5 69/31/5 71/29/5
f 70/30/2 66/26/2 65/22/2 69/31/2
f 65/22/3 67/24/3 71/29/3 69/31/3
f 70/30/1 72/28/1 68/27/1 66/26/1
f 74/12/4 76/13/4 75/14/4 73/15/4
f 76/16/1 80/17/1 79/18/1 75/19/1
f 80/17/2 78/18/2 77/18/2 79/18/2
f 78/18/3 74/20/3 73/21/3 77/18/3
f 73/21/5 75/19/5 79/18/5 77/18/5
f 78/18/6 80/17/6 76/16/6 74/20/6
f 82/12/4 84/13/4 83/14/4 81/15/4
f 84/16/1 88/17/1 87/18/1 83/19/1
f 88/17/2 86/18/2 85/18/2 87/18/2
f 86/18/3 82/20/3 81/21/3 85/18/3
f 81/21/5 83/19/5 87/18/5 85/18/5
f 86/18/6 88/17/6 84/16/6 82/20/6
f 90/1/3 92/2/3 91/3/3 89/4/3
f 92/2/4 96/2/4 95/3/4 91/3/4
f 96/2/1 94/5/1 93/6/1 95/3/1
f 94/5/2 90/1/2 89/4/2 93/6/2
f 89/4/5 91/3/5 95/3/5 93/6/5
f 94/5/6 96/2/6 92/2/6 90/1/6
f 98/7/6 100/8/6 99/2/6 97/2/6
f 100/8/1 104/9/1 103/10/1 99/2/1
f 104/9/5 102/11/5 101/10/5 103/10/5
f 102/11/3 98/7/3 97/2/3 101/10/3
f 97/2/4 99/2/4 103/10/4 101/10/4
f 102/11/2 104/9/2 100/8/2 98/7/2
f 106/12/1 108/13/1 107/14/1 105/15/1
f 108/16/2 112/17/2 111/18/2 107/19/2
f 112/17/3 110/18/3 109/18/3 111/18/3
f 110/18/4 106/20/4 105/21/4 109/18/4
f 105/21/5 107/19/5 111/18/5 109/18/5
f 110/18/6 112/17/6 108/16/6 106/20/6
f 116/32/6 184/33/6 185/34/6 113/35/6 124/36/6 128/37/6 129/38/6
f 233/39/6 238/40/6 234/41/6 194/42/6 198/43/6 193/44/6
f 127/45/7 117/46/7 115/47/7 126/48/7
f 118/49/8 117/46/8 127/45/8 122/50/8
f 126/48/9 115/47/9 121/41/9 125/40/9
f 123/51/10 119/52/10 118/49/10 122/50/10
f 124/36/11 113/35/11 119/52/11 123/51/11
f 129/53/2 128/54/2 139/55/2 140/56/2
f 126/57/12 125/58/12 136/59/12 137/60/12
f 124/61/13 123/62/13 134/63/13 135/64/13
f 125/65/1 120/65/1 132/65/1 136/65/1
f 129/66/6 269/66/6 268/66/6 116/66/6
f 127/67/14 126/57/14 137/60/14 138/68/14
f 122/69/15 127/67/15 138/68/15 133/70/15
f 128/54/16 124/61/16 135/64/16 139/55/16
f 123/62/17 122/69/17 133/70/17 134/63/17
f 146/65/1 219/65/1 194/65/1 121/65/1
f 118/71/18 119/72/18 145/72/18 144/71/18
f 115/73/19 117/74/19 143/74/19 142/73/19
f 117/74/20 118/71/20 144/71/20 143/74/20
f 113/75/2 114/76/2 147/77/2 141/78/2 130/79/2
f 119/72/21 113/35/21 130/35/21 145/72/21
f 121/80/4 115/73/4 142/73/4 146/80/4
f 254/81/1 260/81/1 182/81/1 176/81/1
f 120/82/6 156/83/6 222/84/6 262/59/6
f 220/81/5 147/81/5 182/81/5 260/81/5
f 152/85/6 165/86/6 164/87/6 160/88/6 149/89/6 225/90/6 223/91/6
f 150/92/6 114/93/6 113/35/6 185/34/6 225/90/6 149/89/6
f 163/94/22 162/95/22 151/96/22 153/97/22
f 154/98/23 158/99/23 163/94/23 153/97/23
f 162/95/24 161/43/24 157/42/24 151/96/24
f 159/100/25 158/99/25 154/98/25 155/101/25
f 160/88/26 159/100/26 155/101/26 149/89/26
f 165/102/2 175/60/2 174/103/2 164/104/2
f 162/105/27 172/56/27 171/79/27 161/106/27
f 160/107/28 170/108/28 169/109/28 159/110/28
f 161/65/3 171/65/3 167/65/3 156/65/3
f 165/66/6 152/66/6 264/66/6 265/66/6
f 163/111/29 173/112/29 172/56/29 162/105/29
f 156/44/6 120/39/6 125/40/6 121/41/6 157/42/6 161/43/6
f 158/113/30 168/114/30 173/112/30 163/111/30
f 164/104/31 174/103/31 170/108/31 160/107/31
f 159/110/32 169/109/32 168/114/32 158/113/32
f 194/115/6 234/79/6 157/14/6 121/116/6
f 154/71/33 179/71/33 180/72/33 155/72/33
f 151/73/34 177/73/34 178/74/34 153/74/34
f 153/74/35 178/74/35 179/71/35 154/71/35
f 149/117/2 166/59/2 176/103/2 182/118/2 150/104/2
f 155/72/36 180/72/36 166/35/36 149/35/36
f 157/80/4 181/80/4 177/73/4 151/73/4
f 245/65/3 233/65/3 148/65/3 263/65/3
f 233/115/6 193/79/6 183/59/6 148/84/6
f 132/65/1 120/65/1 262/65/1 261/65/1
f 189/85/6 202/86/6 201/87/6 197/88/6 186/89/6 185/90/6 184/91/6
f 225/34/6 185/90/6 186/89/6 187/92/6 227/93/6 226/35/6
f 200/94/7 199/95/7 188/96/7 190/97/7
f 191/98/8 195/99/8 200/94/8 190/97/8
f 199/95/9 198/43/9 194/42/9 188/96/9
f 196/100/10 195/99/10 191/98/10 192/101/10
f 197/88/11 196/100/11 192/101/11 186/89/11
f 202/53/4 213/56/4 212/55/4 201/54/4
f 199/57/37 210/60/37 209/59/37 198/58/37
f 197/61/38 208/64/38 207/63/38 196/62/38
f 198/65/1 209/65/1 205/65/1 193/65/1
f 202/66/6 189/66/6 270/66/6 271/66/6
f 200/67/39 211/68/39 210/60/39 199/57/39
f 195/69/40 206/70/40 211/68/40 200/67/40
f 201/54/41 212/55/41 208/64/41 197/61/41
f 196/62/42 207/63/42 206/70/42 195/69/42
f 191/71/43 217/71/43 218/72/43 192/72/43
f 188/73/44 215/73/44 216/74/44 190/74/44
f 190/74/45 216/74/45 217/71/45 191/71/45
f 186/75/4 203/79/4 214/78/4 220/77/4 187/76/4
f 192/72/46 218/72/46 203/35/46 186/35/46
f 194/80/2 219/80/2 215/73/2 188/73/2
f 214/81/3 141/81/3 147/81/3 220/81/3
f 229/32/6 223/33/6 225/34/6 226/35/6 237/36/6 241/37/6 242/38/6
f 240/45/22 230/46/22 228/47/22 239/48/22
f 231/49/23 230/46/23 240/45/23 235/50/23
f 239/48/24 228/47/24 234/41/24 238/40/24
f 236/51/25 232/52/25 231/49/25 235/50/25
f 237/36/26 226/35/26 232/52/26 236/51/26
f 242/102/4 241/104/4 252/103/4 253/60/4
f 239/105/47 238/106/47 249/79/47 250/56/47
f 237/107/48 236/110/48 247/109/48 248/108/48
f 238/65/3 233/65/3 245/65/3 249/65/3
f 242/66/6 273/66/6 272/66/6 229/66/6
f 240/111/49 239/105/49 250/56/49 251/112/49
f 235/113/50 240/111/50 251/112/50 246/114/50
f 241/104/51 237/107/51 248/108/51 252/103/51
f 236/110/52 235/113/52 246/114/52 247/109/52
f 231/71/53 232/72/53 258/72/53 257/71/53
f 228/73/54 230/74/54 256/74/54 255/73/54
f 230/74/55 231/71/55 257/71/55 256/74/55
f 226/117/4 227/104/4 260/118/4 254/103/4 243/59/4
f 232/72/56 226/35/56 243/35/56 258/72/56
f 234/80/2 228/73/2 255/73/2 259/80/2
f 193/65/1 205/65/1 224/65/1 183/65/1
f 156/65/3 167/65/3 221/65/3 222/65/3
f 157/65/3 234/65/3 259/65/3 181/65/3
f 264/117/57 266/59/57 267/60/57 265/102/57
f 175/60/2 165/102/2 265/102/2 267/60/2
f 131/79/58 268/79/58 269/56/58 140/56/58
f 213/56/59 271/56/59 270/79/59 204/79/59
f 244/59/60 272/59/60 273/60/60 253/60/60
f 114/76/2 150/104/2 182/118/2 147/77/2
f 220/77/4 260/118/4 227/104/4 187/76/4
