# Blender v2.75 (sub 0) OBJ File: ''
# www.blender.org
o stopsign1.001_Circle.002
v 1.025114 0.669030 1.025488
v 0.974886 0.669030 1.025488
v 1.025114 0.669030 0.974512
v 0.974886 0.669030 0.974512
v 1.025114 0.000000 1.025488
v 0.974886 0.000000 1.025488
v 1.025114 0.000000 0.974512
v 0.974886 0.000000 0.974512
v 0.904329 1.130970 1.050000
v 0.769030 0.995671 1.050000
v 0.769030 0.804329 1.050000
v 0.904329 0.669030 1.050000
v 1.095671 0.669030 1.050000
v 1.230970 0.804329 1.050000
v 1.230970 0.995671 1.050000
v 1.095671 1.130970 1.050000
v 0.904329 1.130970 0.950000
v 0.769030 0.995671 0.950000
v 0.769030 0.804329 0.950000
v 0.904329 0.669030 0.950000
v 1.095671 0.669030 0.950000
v 1.230970 0.804329 0.950000
v 1.230970 0.995671 0.950000
v 1.095671 1.130970 0.950000
vt 0.120117 0.870117
vt 0.062500 0.856445
vt 0.062500 0.831055
vt 0.081055 0.812500
vt 0.106445 0.812500
vt 0.125000 0.831055
vt 0.125000 0.856445
vt 0.106445 0.875000
vt 0.081055 0.875000
vt 0.119141 0.868164
vt 0.121094 0.868164
vt 0.122070 0.869141
vt 0.122070 0.871094
vt 0.121094 0.872070
vt 0.120117 0.872070
vt 0.119141 0.871094
vt 0.119141 0.869141
vt 0.117188 0.869141
vt 0.117188 0.871094
vt 0.121094 0.867188
vt 0.119141 0.867188
vt 0.123047 0.869141
vt 0.121094 0.873047
vt 0.123047 0.871094
vt 0.119141 0.873047
vn -1.000000 0.000000 0.000000
vn -0.000000 -1.000000 0.000000
vn 1.000000 0.000000 0.000000
vn 0.000000 0.000000 -1.000000
vn 0.000000 0.000000 1.000000
vn -0.707100 -0.707100 0.000000
vn -0.707100 0.707100 0.000000
vn 0.000000 1.000000 0.000000
vn 0.707100 0.707100 -0.000000
vn 0.707100 -0.707100 0.000000
s off
f 2/1/1 4/1/1 8/1/1 6/1/1
f 6/1/2 8/1/2 7/1/2 5/1/2
f 3/1/3 1/1/3 5/1/3 7/1/3
f 4/1/4 3/1/4 7/1/4 8/1/4
f 1/1/5 2/1/5 6/1/5 5/1/5
f 10/2/5 11/3/5 12/4/5 13/5/5 14/6/5 15/7/5 16/8/5 9/9/5
f 18/10/4 17/11/4 24/12/4 23/13/4 22/14/4 21/15/4 20/16/4 19/17/4
f 11/18/6 19/17/6 20/16/6 12/19/6
f 9/20/7 17/11/7 18/10/7 10/21/7
f 16/22/8 24/12/8 17/11/8 9/20/8
f 14/23/3 22/14/3 23/13/3 15/24/3
f 10/21/1 18/10/1 19/17/1 11/18/1
f 15/24/9 23/13/9 24/12/9 16/22/9
f 13/25/10 21/15/10 22/14/10 14/23/10
f 20/1/2 21/1/2 13/1/2 12/1/2
o type1_4WayStop_Cube.002
v -1.000000 0.000000 1.000000
v -1.000000 0.100000 1.000000
v -1.000000 0.000000 -1.000000
v -1.000000 0.100000 -1.000000
v 1.000000 0.000000 1.000000
v 1.000000 0.100000 1.000000
v 1.000000 0.000000 -1.000000
v 1.000000 0.100000 -1.000000
vt 0.250000 0.937500
vt 0.250000 0.875000
vt 0.187500 0.875000
vt 0.187500 0.937500
vt 0.333008 0.912109
vt 0.335938 0.887695
vt 0.336914 0.888672
vt 0.333984 0.910156
vt 0.359375 0.887695
vt 0.358398 0.888672
vt 0.357422 0.912109
vt 0.356445 0.910156
vn 0.000000 1.000000 0.000000
vn -1.000000 0.000000 0.000000
vn 0.000000 0.000000 -1.000000
vn 1.000000 0.000000 0.000000
vn 0.000000 0.000000 1.000000
vn 0.000000 -1.000000 0.000000
s off
f 30/26/11 32/27/11 28/28/11 26/29/11
f 26/30/12 28/31/12 27/32/12 25/33/12
f 28/31/13 32/34/13 31/35/13 27/32/13
f 32/34/14 30/36/14 29/37/14 31/35/14
f 30/36/15 26/30/15 25/33/15 29/37/15
f 25/33/16 27/32/16 31/35/16 29/37/16
o stopsign3_Circle.002
v -1.025488 0.669030 1.025114
v -1.025488 0.669030 0.974886
v -0.974512 0.669030 1.025114
v -0.974512 0.669030 0.974886
v -1.025488 0.000000 1.025114
v -1.025488 0.000000 0.974886
v -0.974512 0.000000 1.025114
v -0.974512 0.000000 0.974886
v -1.050000 1.130970 0.904329
v -1.050000 0.995671 0.769030
v -1.050000 0.804329 0.769030
v -1.050000 0.669030 0.904329
v -1.050000 0.669030 1.095671
v -1.050000 0.804329 1.230970
v -1.050000 0.995671 1.230970
v -1.050000 1.130970 1.095671
v -0.950000 1.130970 0.904329
v -0.950000 0.995671 0.769030
v -0.950000 0.804329 0.769030
v -0.950000 0.669030 0.904329
v -0.950000 0.669030 1.095671
v -0.950000 0.804329 1.230970
v -0.950000 0.995671 1.230970
v -0.950000 1.130970 1.095671
vt 0.120117 0.870117
vt 0.062500 0.856445
vt 0.062500 0.831055
vt 0.081055 0.812500
vt 0.106445 0.812500
vt 0.125000 0.831055
vt 0.125000 0.856445
vt 0.106445 0.875000
vt 0.081055 0.875000
vt 0.119141 0.868164
vt 0.121094 0.868164
vt 0.122070 0.869141
vt 0.122070 0.871094
vt 0.121094 0.872070
vt 0.120117 0.872070
vt 0.119141 0.871094
vt 0.119141 0.869141
vt 0.117188 0.869141
vt 0.117188 0.871094
vt 0.121094 0.867188
vt 0.119141 0.867188
vt 0.123047 0.869141
vt 0.121094 0.873047
vt 0.123047 0.871094
vt 0.119141 0.873047
vn 0.000000 0.000000 -1.000000
vn 0.000000 -1.000000 -0.000000
vn 0.000000 0.000000 1.000000
vn 1.000000 0.000000 0.000000
vn -1.000000 0.000000 0.000000
vn 0.000000 -0.707100 -0.707100
vn 0.000000 0.707100 -0.707100
vn 0.000000 1.000000 0.000000
vn 0.000000 0.707100 0.707100
vn 0.000000 -0.707100 0.707100
s off
f 34/38/17 36/38/17 40/38/17 38/38/17
f 38/38/18 40/38/18 39/38/18 37/38/18
f 35/38/19 33/38/19 37/38/19 39/38/19
f 36/38/20 35/38/20 39/38/20 40/38/20
f 33/38/21 34/38/21 38/38/21 37/38/21
f 42/39/21 43/40/21 44/41/21 45/42/21 46/43/21 47/44/21 48/45/21 41/46/21
f 50/47/20 49/48/20 56/49/20 55/50/20 54/51/20 53/52/20 52/53/20 51/54/20
f 43/55/22 51/54/22 52/53/22 44/56/22
f 41/57/23 49/48/23 50/47/23 42/58/23
f 48/59/24 56/49/24 49/48/24 41/57/24
f 46/60/19 54/51/19 55/50/19 47/61/19
f 42/58/17 50/47/17 51/54/17 43/55/17
f 47/61/25 55/50/25 56/49/25 48/59/25
f 45/62/26 53/52/26 54/51/26 46/60/26
f 52/38/18 53/38/18 45/38/18 44/38/18
o stopsign1_Circle.002
v -1.025114 0.669030 -1.025488
v -0.974886 0.669030 -1.025488
v -1.025114 0.669030 -0.974512
v -0.974886 0.669030 -0.974512
v -1.025114 0.000000 -1.025488
v -0.974886 0.000000 -1.025488
v -1.025114 0.000000 -0.974512
v -0.974886 0.000000 -0.974512
v -0.904329 1.130970 -1.050000
v -0.769030 0.995671 -1.050000
v -0.769030 0.804329 -1.050000
v -0.904329 0.669030 -1.050000
v -1.095671 0.669030 -1.050000
v -1.230970 0.804329 -1.050000
v -1.230970 0.995671 -1.050000
v -1.095671 1.130970 -1.050000
v -0.904329 1.130970 -0.950000
v -0.769030 0.995671 -0.950000
v -0.769030 0.804329 -0.950000
v -0.904329 0.669030 -0.950000
v -1.095671 0.669030 -0.950000
v -1.230970 0.804329 -0.950000
v -1.230970 0.995671 -0.950000
v -1.095671 1.130970 -0.950000
vt 0.120117 0.870117
vt 0.062500 0.856445
vt 0.062500 0.831055
vt 0.081055 0.812500
vt 0.106445 0.812500
vt 0.125000 0.831055
vt 0.125000 0.856445
vt 0.106445 0.875000
vt 0.081055 0.875000
vt 0.119141 0.868164
vt 0.121094 0.868164
vt 0.122070 0.869141
vt 0.122070 0.871094
vt 0.121094 0.872070
vt 0.120117 0.872070
vt 0.119141 0.871094
vt 0.119141 0.869141
vt 0.117188 0.869141
vt 0.117188 0.871094
vt 0.121094 0.867188
vt 0.119141 0.867188
vt 0.123047 0.869141
vt 0.121094 0.873047
vt 0.123047 0.871094
vt 0.119141 0.873047
vn 1.000000 0.000000 -0.000000
vn 0.000000 -1.000000 -0.000000
vn -1.000000 0.000000 0.000000
vn -0.000000 0.000000 1.000000
vn -0.000000 0.000000 -1.000000
vn 0.707100 -0.707100 0.000000
vn 0.707100 0.707100 0.000000
vn 0.000000 1.000000 0.000000
vn -0.707100 0.707100 0.000000
vn -0.707100 -0.707100 0.000000
s off
f 58/63/27 60/63/27 64/63/27 62/63/27
f 62/63/28 64/63/28 63/63/28 61/63/28
f 59/63/29 57/63/29 61/63/29 63/63/29
f 60/63/30 59/63/30 63/63/30 64/63/30
f 57/63/31 58/63/31 62/63/31 61/63/31
f 66/64/31 67/65/31 68/66/31 69/67/31 70/68/31 71/69/31 72/70/31 65/71/31
f 74/72/30 73/73/30 80/74/30 79/75/30 78/76/30 77/77/30 76/78/30 75/79/30
f 67/80/32 75/79/32 76/78/32 68/81/32
f 65/82/33 73/73/33 74/72/33 66/83/33
f 72/84/34 80/74/34 73/73/34 65/82/34
f 70/85/29 78/76/29 79/75/29 71/86/29
f 66/83/27 74/72/27 75/79/27 67/80/27
f 71/86/35 79/75/35 80/74/35 72/84/35
f 69/87/36 77/77/36 78/76/36 70/85/36
f 76/63/28 77/63/28 69/63/28 68/63/28
o stopsign2_Circle.002
v 1.025488 0.669030 -1.025114
v 1.025488 0.669030 -0.974886
v 0.974512 0.669030 -1.025114
v 0.974512 0.669030 -0.974886
v 1.025488 0.000000 -1.025114
v 1.025488 0.000000 -0.974886
v 0.974512 0.000000 -1.025114
v 0.974512 0.000000 -0.974886
v 1.050000 1.130970 -0.904329
v 1.050000 0.995671 -0.769030
v 1.050000 0.804329 -0.769030
v 1.050000 0.669030 -0.904329
v 1.050000 0.669030 -1.095671
v 1.050000 0.804329 -1.230970
v 1.050000 0.995671 -1.230970
v 1.050000 1.130970 -1.095671
v 0.950000 1.130970 -0.904329
v 0.950000 0.995671 -0.769030
v 0.950000 0.804329 -0.769030
v 0.950000 0.669030 -0.904329
v 0.950000 0.669030 -1.095671
v 0.950000 0.804329 -1.230970
v 0.950000 0.995671 -1.230970
v 0.950000 1.130970 -1.095671
vt 0.120117 0.870117
vt 0.062500 0.856445
vt 0.062500 0.831055
vt 0.081055 0.812500
vt 0.106445 0.812500
vt 0.125000 0.831055
vt 0.125000 0.856445
vt 0.106445 0.875000
vt 0.081055 0.875000
vt 0.119141 0.868164
vt 0.121094 0.868164
vt 0.122070 0.869141
vt 0.122070 0.871094
vt 0.121094 0.872070
vt 0.120117 0.872070
vt 0.119141 0.871094
vt 0.119141 0.869141
vt 0.117188 0.869141
vt 0.117188 0.871094
vt 0.121094 0.867188
vt 0.119141 0.867188
vt 0.123047 0.869141
vt 0.121094 0.873047
vt 0.123047 0.871094
vt 0.119141 0.873047
vn 0.000000 0.000000 1.000000
vn 0.000000 -1.000000 0.000000
vn 0.000000 0.000000 -1.000000
vn -1.000000 0.000000 0.000000
vn 1.000000 0.000000 -0.000000
vn 0.000000 -0.707100 0.707100
vn 0.000000 0.707100 0.707100
vn 0.000000 1.000000 0.000000
vn 0.000000 0.707100 -0.707100
vn 0.000000 -0.707100 -0.707100
s off
f 82/88/37 84/88/37 88/88/37 86/88/37
f 86/88/38 88/88/38 87/88/38 85/88/38
f 83/88/39 81/88/39 85/88/39 87/88/39
f 84/88/40 83/88/40 87/88/40 88/88/40
f 81/88/41 82/88/41 86/88/41 85/88/41
f 90/89/41 91/90/41 92/91/41 93/92/41 94/93/41 95/94/41 96/95/41 89/96/41
f 98/97/40 97/98/40 104/99/40 103/100/40 102/101/40 101/102/40 100/103/40 99/104/40
f 91/105/42 99/104/42 100/103/42 92/106/42
f 89/107/43 97/98/43 98/97/43 90/108/43
f 96/109/44 104/99/44 97/98/44 89/107/44
f 94/110/39 102/101/39 103/100/39 95/111/39
f 90/108/37 98/97/37 99/104/37 91/105/37
f 95/111/45 103/100/45 104/99/45 96/109/45
f 93/112/46 101/102/46 102/101/46 94/110/46
f 100/88/38 101/88/38 93/88/38 92/88/38
