# Blender v2.75 (sub 0) OBJ File: ''
# www.blender.org
o Circle_Circle.004
v -1.414214 0.000000 -1.414214
v -1.847759 0.000000 -0.765367
v -2.000000 0.000000 0.000000
v -1.847759 0.000000 0.765367
v -1.414214 0.000000 1.414214
v -0.765367 0.000000 1.847759
v -0.000000 0.000000 2.000000
v 0.765366 0.000000 1.847759
v 1.414213 0.000000 1.414214
v 1.847759 0.000000 0.765367
v 2.000000 0.000000 -0.000000
v 1.847759 0.000000 -0.765367
v 1.414213 0.000000 -1.414214
v -1.414214 0.100000 -1.414214
v -1.847759 0.100000 -0.765367
v -2.000000 0.100000 0.000000
v -1.847759 0.100000 0.765367
v -1.414214 0.100000 1.414214
v -0.765367 0.100000 1.847759
v -0.000000 0.100000 2.000000
v 0.765366 0.100000 1.847759
v 1.414213 0.100000 1.414214
v 1.847759 0.100000 0.765367
v 2.000000 0.100000 -0.000000
v 1.847759 0.100000 -0.765367
v 1.414213 0.100000 -1.414214
v -1.000000 0.000000 -2.000000
v 1.000000 0.000000 -2.000000
v -1.000000 0.100000 -2.000000
v 1.000000 0.100000 -2.000000
v -1.089790 0.000000 -1.630986
v 1.089790 0.000000 -1.630987
v -1.089790 0.100000 -1.630986
v 1.089790 0.100000 -1.630987
vt 0.334961 0.911133
vt 0.347656 0.911133
vt 0.349609 0.910156
vt 0.351562 0.906250
vt 0.352539 0.902344
vt 0.351562 0.897461
vt 0.349609 0.893555
vt 0.345703 0.891602
vt 0.341797 0.890625
vt 0.336914 0.891602
vt 0.333984 0.893555
vt 0.331055 0.897461
vt 0.330078 0.902344
vt 0.331055 0.906250
vt 0.333984 0.910156
vt 0.090820 0.801758
vt 0.081055 0.794922
vt 0.067383 0.774414
vt 0.062500 0.750000
vt 0.067383 0.726562
vt 0.081055 0.706055
vt 0.100586 0.692383
vt 0.125000 0.687500
vt 0.148438 0.692383
vt 0.168945 0.706055
vt 0.182617 0.726562
vt 0.187500 0.750000
vt 0.182617 0.774414
vt 0.168945 0.794922
vt 0.159180 0.801758
vt 0.156250 0.812500
vt 0.093750 0.812500
vt 0.346680 0.913086
vt 0.335938 0.913086
vn 0.000000 -1.000000 0.000000
vn 0.000000 1.000000 -0.000000
vn -0.980800 0.000000 0.195100
vn 0.980800 0.000000 -0.195100
vn -0.831500 0.000000 0.555600
vn 0.831500 0.000000 -0.555600
vn -0.555600 0.000000 0.831500
vn -0.195100 0.000000 0.980800
vn 0.195100 0.000000 0.980800
vn -0.555600 0.000000 -0.831500
vn 0.555600 0.000000 0.831500
vn -0.831500 0.000000 -0.555600
vn 0.831500 0.000000 0.555600
vn -0.980800 0.000000 -0.195100
vn 0.980800 0.000000 0.195100
vn 0.555600 0.000000 -0.831500
vn 0.971600 0.000000 -0.236400
vn -0.971600 0.000000 -0.236400
vn 0.000000 0.000000 -1.000000
s off
f 31/1/1 32/2/1 13/3/1 12/4/1 11/5/1 10/6/1 9/7/1 8/8/1 7/9/1 6/10/1 5/11/1 4/12/1 3/13/1 2/14/1 1/15/1
f 33/16/2 14/17/2 15/18/2 16/19/2 17/20/2 18/21/2 19/22/2 20/23/2 21/24/2 22/25/2 23/26/2 24/27/2 25/28/2 26/29/2 34/30/2
f 3/13/3 4/12/3 17/12/3 16/13/3
f 11/5/4 12/4/4 25/4/4 24/5/4
f 4/12/5 5/11/5 18/11/5 17/12/5
f 12/4/6 13/3/6 26/3/6 25/4/6
f 5/11/7 6/10/7 19/10/7 18/11/7
f 6/10/8 7/9/8 20/9/8 19/10/8
f 7/9/9 8/8/9 21/8/9 20/9/9
f 31/1/10 1/15/10 14/15/10 33/1/10
f 8/8/11 9/7/11 22/7/11 21/8/11
f 1/15/12 2/14/12 15/14/12 14/15/12
f 9/7/13 10/6/13 23/6/13 22/7/13
f 2/14/14 3/13/14 16/13/14 15/14/14
f 10/6/15 11/5/15 24/5/15 23/6/15
f 34/30/2 30/31/2 29/32/2 33/16/2
f 13/3/16 32/2/16 34/2/16 26/3/16
f 32/2/17 28/33/17 30/33/17 34/2/17
f 33/1/18 29/34/18 27/34/18 31/1/18
f 28/33/19 27/34/19 29/34/19 30/33/19
f 32/2/1 31/1/1 27/34/1 28/33/1
